<svg xmlns="http://www.w3.org/2000/svg" width="60" height="60" viewBox="0 0 60 60">
  <metadata><?xpacket begin="﻿" id="W5M0MpCehiHzreSzNTczkc9d"?>
<x:xmpmeta xmlns:x="adobe:ns:meta/" x:xmptk="Adobe XMP Core 5.6-c138 79.159824, 2016/09/14-01:09:01        ">
   <rdf:RDF xmlns:rdf="http://www.w3.org/1999/02/22-rdf-syntax-ns#">
      <rdf:Description rdf:about=""/>
   </rdf:RDF>
</x:xmpmeta>
                                                                                                    
                                                                                                    
                                                                                                    
                                                                                                    
                                                                                                    
                                                                                                    
                                                                                                    
                                                                                                    
                                                                                                    
                                                                                                    
                                                                                                    
                                                                                                    
                                                                                                    
                                                                                                    
                                                                                                    
                                                                                                    
                                                                                                    
                                                                                                    
                                                                                                    
                                                                                                    
                           
<?xpacket end="w"?></metadata>
<defs>
    <style>
      .cls-1 {
        fill: #666;
        fill-rule: evenodd;
      }
    </style>
  </defs>
  <path id="_-e-Shape_856_copy" data-name="-e-Shape 856 copy" class="cls-1" d="M13138,703.54a8.444,8.444,0,1,0,8.4,8.444A8.476,8.476,0,0,0,13138,703.54Zm19.6-21.54h-39.2a10.354,10.354,0,0,0-10.4,10.37v39.258a10.354,10.354,0,0,0,10.4,10.37h39.2a10.354,10.354,0,0,0,10.4-10.37V692.37A10.418,10.418,0,0,0,13157.6,682Zm-19.6,47.317a17.333,17.333,0,1,1,17.3-17.333A17.375,17.375,0,0,1,13138,729.317Zm23.7-36.71a4.348,4.348,0,0,1-4.3,4.3h0a4.284,4.284,0,0,1-4.3-4.3h0a4.284,4.284,0,0,1,4.3-4.3h0a4.348,4.348,0,0,1,4.3,4.3h0Z" transform="translate(-13108 -682)"/>
</svg>
