<svg id="svg" version="1.1" width="500" height="551" xmlns="http://www.w3.org/2000/svg" xmlns:xlink="http://www.w3.org/1999/xlink" style="display: block;"><g id="svgg"><path id="path0" d="M7.313 3.348 C 7.135 9.268,12.313 15.953,14.997 13.269 C 15.231 13.036,14.562 12.516,13.511 12.114 C 10.300 10.887,8.464 8.130,7.929 3.734 L 7.425 -0.400 7.313 3.348 M394.656 4.800 C 394.656 7.660,394.801 8.830,394.979 7.400 C 395.156 5.970,395.156 3.630,394.979 2.200 C 394.801 0.770,394.656 1.940,394.656 4.800 M383.200 31.555 C 383.200 32.190,382.400 33.270,381.422 33.955 C 380.444 34.640,380.058 35.200,380.565 35.200 C 381.853 35.200,384.000 32.914,384.000 31.543 C 384.000 30.914,383.820 30.400,383.600 30.400 C 383.380 30.400,383.200 30.920,383.200 31.555 M153.307 69.154 C 154.785 69.797,156.156 71.181,156.644 72.522 C 157.176 73.982,157.496 74.284,157.537 73.364 C 157.618 71.521,154.108 67.991,152.236 68.031 C 151.342 68.051,151.747 68.475,153.307 69.154 M57.636 80.092 C 57.584 81.943,60.673 85.605,62.258 85.572 C 63.217 85.551,63.030 85.228,61.605 84.439 C 60.508 83.832,59.174 82.315,58.641 81.068 C 58.108 79.820,57.656 79.381,57.636 80.092 M329.600 100.217 C 328.920 101.681,327.187 103.406,325.600 104.199 C 323.206 105.395,323.070 105.598,324.662 105.599 C 326.971 105.600,331.200 101.502,331.200 99.262 C 331.200 97.059,331.017 97.168,329.600 100.217 M300.800 140.559 C 300.800 142.666,297.868 146.382,296.142 146.463 C 295.270 146.504,295.159 146.671,295.826 146.938 C 298.370 147.961,303.181 141.315,301.276 139.409 C 301.014 139.148,300.800 139.665,300.800 140.559 M108.851 154.502 C 108.793 155.982,110.973 158.094,111.753 157.314 C 112.035 157.031,111.835 156.800,111.308 156.800 C 110.780 156.800,110.023 155.990,109.625 155.000 C 109.135 153.782,108.885 153.621,108.851 154.502 M130.393 181.574 C 130.767 182.880,131.326 184.356,131.634 184.856 C 132.330 185.982,137.618 188.249,138.197 187.669 C 138.431 187.436,137.719 186.902,136.616 186.482 C 134.391 185.636,131.200 181.989,131.200 180.292 C 131.200 179.691,130.865 179.200,130.456 179.200 C 130.011 179.200,129.986 180.155,130.393 181.574 M269.600 185.639 C 269.600 186.100,268.430 187.018,267.000 187.678 L 264.400 188.879 266.792 188.376 C 269.027 187.906,270.359 186.804,270.388 185.400 C 270.394 185.070,270.220 184.800,270.000 184.800 C 269.780 184.800,269.600 185.177,269.600 185.639 M133.538 235.938 C 131.223 238.254,130.431 240.800,132.027 240.800 C 133.102 240.800,138.400 235.502,138.400 234.427 C 138.400 232.831,135.854 233.623,133.538 235.938 M274.800 242.758 C 276.560 243.428,278.107 243.981,278.239 243.988 C 278.370 243.995,278.986 245.170,279.607 246.600 C 280.501 248.656,280.744 248.842,280.769 247.489 C 280.817 244.821,278.319 242.528,274.800 242.011 L 271.600 241.540 274.800 242.758 M297.932 272.835 C 299.214 273.218,300.559 273.997,300.920 274.566 C 301.401 275.325,301.579 275.342,301.588 274.628 C 301.603 273.434,299.019 271.976,297.053 272.069 C 296.202 272.109,296.567 272.427,297.932 272.835 M200.762 282.600 C 201.162 283.590,201.698 285.380,201.954 286.577 C 202.475 289.016,203.897 289.985,208.000 290.696 L 210.800 291.181 208.400 290.283 C 204.912 288.978,203.951 288.019,202.319 284.211 C 200.836 280.752,199.424 279.291,200.762 282.600 M79.800 304.064 C 79.030 304.513,78.400 305.277,78.400 305.764 C 78.400 306.282,78.980 306.143,79.800 305.428 C 80.570 304.758,81.740 304.010,82.400 303.768 C 83.467 303.375,83.467 303.322,82.400 303.287 C 81.740 303.266,80.570 303.616,79.800 304.064 M326.393 315.433 C 329.329 316.877,330.158 317.784,330.931 320.400 C 331.769 323.233,331.884 323.342,331.939 321.347 C 332.027 318.099,330.655 316.025,327.561 314.732 C 323.293 312.949,322.413 313.476,326.393 315.433 M158.707 333.153 C 158.464 333.788,158.433 334.958,158.640 335.753 C 158.891 336.723,159.045 336.492,159.107 335.053 C 159.181 333.355,159.660 332.837,161.400 332.573 L 163.600 332.240 161.375 332.120 C 160.085 332.050,158.964 332.485,158.707 333.153 M348.593 344.564 C 349.579 344.754,350.929 345.685,351.593 346.633 C 352.257 347.581,352.800 347.942,352.800 347.435 C 352.800 345.882,350.383 343.994,348.543 344.109 C 346.807 344.217,346.807 344.219,348.593 344.564 M49.691 346.200 C 48.764 346.970,47.823 348.860,47.602 350.400 C 47.226 353.005,47.250 353.043,47.944 350.949 C 48.881 348.117,50.288 346.406,52.372 345.561 C 53.602 345.063,53.679 344.889,52.689 344.851 C 51.967 344.823,50.618 345.430,49.691 346.200 M141.000 356.569 C 138.134 359.619,137.536 361.853,139.800 361.058 C 141.863 360.332,145.396 356.866,145.853 355.120 C 146.490 352.684,143.935 353.447,141.000 356.569 M252.024 359.743 C 252.011 360.261,252.566 361.251,253.257 361.943 C 253.949 362.634,254.939 363.189,255.457 363.176 C 255.976 363.162,255.781 362.791,255.025 362.350 C 254.270 361.910,253.290 360.930,252.850 360.175 C 252.409 359.419,252.038 359.224,252.024 359.743 M272.869 387.436 C 272.778 390.402,276.001 393.623,278.964 393.528 L 281.200 393.456 278.701 392.731 C 275.806 391.892,274.557 390.596,273.613 387.451 L 272.938 385.200 272.869 387.436 M21.886 387.193 C 19.720 388.067,17.590 391.063,17.631 393.178 C 17.655 394.388,17.944 394.152,18.772 392.250 C 19.431 390.734,21.123 389.044,22.941 388.085 C 25.962 386.491,25.208 385.853,21.886 387.193 M377.062 388.013 C 378.965 389.062,380.559 390.743,381.273 392.451 C 382.719 395.913,383.321 396.013,382.351 392.629 C 381.412 389.357,379.443 387.432,376.400 386.813 C 374.132 386.351,374.168 386.417,377.062 388.013 M115.765 401.060 C 115.474 401.818,114.417 402.767,113.418 403.169 C 112.301 403.617,112.081 403.918,112.847 403.949 C 114.683 404.024,117.076 402.028,116.657 400.771 C 116.385 399.955,116.161 400.028,115.765 401.060 M1.000 415.751 C 1.770 415.953,3.030 415.953,3.800 415.751 C 4.570 415.550,3.940 415.386,2.400 415.386 C 0.860 415.386,0.230 415.550,1.000 415.751 M295.200 416.462 C 295.200 418.097,299.503 422.400,301.138 422.400 C 303.119 422.400,302.634 420.981,299.627 417.973 C 296.619 414.966,295.200 414.481,295.200 416.462 M95.600 425.412 C 95.160 425.736,94.253 427.080,93.584 428.400 C 92.915 429.720,91.115 431.429,89.584 432.199 C 87.546 433.223,87.235 433.598,88.422 433.599 C 90.886 433.601,93.442 431.450,95.132 427.951 C 95.970 426.218,96.597 424.806,96.527 424.812 C 96.457 424.819,96.040 425.089,95.600 425.412 " stroke="none" fill="#000000" fill-rule="evenodd"></path><path id="path1" d="M10.400 3.061 C 10.400 5.957,11.861 8.160,14.925 9.882 C 16.222 10.611,15.340 7.512,13.914 6.328 C 13.301 5.820,12.800 4.188,12.800 2.702 C 12.800 0.834,12.430 0.000,11.600 0.000 C 10.742 0.000,10.400 0.873,10.400 3.061 M104.800 2.847 C 104.800 4.542,105.124 5.494,105.600 5.200 C 106.040 4.928,106.400 3.647,106.400 2.353 C 106.400 1.059,106.040 0.000,105.600 0.000 C 105.160 0.000,104.800 1.281,104.800 2.847 M302.707 10.753 C 302.464 11.388,302.406 12.558,302.578 13.353 C 302.774 14.257,303.047 13.823,303.307 12.200 C 303.743 9.476,303.460 8.793,302.707 10.753 M294.057 17.257 C 292.343 18.971,292.410 20.900,294.160 20.228 C 295.058 19.883,295.183 19.594,294.527 19.376 C 293.865 19.155,294.120 18.537,295.290 17.522 C 296.255 16.685,296.655 16.000,296.180 16.000 C 295.704 16.000,294.749 16.566,294.057 17.257 M16.000 18.527 C 16.000 20.345,17.434 23.329,18.720 24.188 C 20.359 25.282,22.402 24.837,22.337 23.400 C 22.299 22.564,22.111 22.403,21.870 23.000 C 21.648 23.550,21.115 24.000,20.686 24.000 C 20.257 24.000,20.126 23.644,20.394 23.209 C 20.688 22.734,20.308 22.634,19.442 22.959 C 18.178 23.433,18.135 23.334,19.091 22.159 C 19.691 21.421,20.556 21.049,21.014 21.332 C 21.514 21.641,21.606 21.457,21.244 20.871 C 20.793 20.142,20.223 20.262,18.985 21.348 C 17.397 22.740,17.350 22.740,17.855 21.358 C 18.170 20.496,18.064 20.113,17.591 20.406 C 17.156 20.674,16.800 20.531,16.800 20.087 C 16.800 19.643,17.381 18.954,18.091 18.557 C 19.212 17.930,19.159 17.776,17.691 17.392 C 16.392 17.052,16.000 17.315,16.000 18.527 M382.148 25.319 C 381.863 25.604,381.845 26.774,382.110 27.919 C 382.574 29.933,382.550 29.948,381.354 28.400 L 380.118 26.800 380.259 28.400 C 380.339 29.307,379.967 29.913,379.400 29.800 C 378.850 29.690,378.490 30.050,378.600 30.600 C 378.710 31.150,378.174 31.551,377.409 31.490 C 376.617 31.428,376.243 31.745,376.540 32.226 C 376.874 32.767,376.541 32.872,375.618 32.518 C 374.436 32.064,374.346 32.171,375.120 33.104 C 375.855 33.989,375.835 34.339,375.033 34.668 C 374.465 34.901,375.260 34.899,376.800 34.664 C 380.637 34.077,383.494 30.869,382.886 27.830 C 382.602 26.410,382.728 25.708,383.212 26.007 C 383.645 26.275,384.000 26.113,384.000 25.647 C 384.000 24.705,382.949 24.518,382.148 25.319 M119.772 27.760 C 120.098 28.610,120.413 28.760,120.613 28.160 C 120.789 27.632,121.487 27.200,122.165 27.200 C 123.100 27.200,123.183 27.456,122.511 28.267 C 121.843 29.072,121.908 29.333,122.778 29.333 C 123.411 29.333,123.744 29.033,123.518 28.667 C 123.291 28.300,123.466 28.000,123.906 28.000 C 125.347 28.000,125.760 29.642,124.669 31.035 C 123.706 32.264,123.739 32.291,125.000 31.302 C 126.596 30.051,126.916 31.160,125.400 32.687 C 124.598 33.495,124.677 33.589,125.800 33.162 C 129.485 31.759,125.584 26.400,120.878 26.400 C 119.675 26.400,119.386 26.755,119.772 27.760 M287.368 27.303 C 284.504 28.129,282.833 31.057,283.434 34.198 C 283.623 35.189,283.408 36.000,282.956 36.000 C 282.503 36.000,282.322 36.188,282.552 36.419 C 283.658 37.525,285.547 35.795,284.785 34.373 C 283.546 32.057,284.452 31.477,286.909 33.014 C 288.076 33.743,289.462 32.017,289.168 30.200 C 288.901 28.552,289.635 28.409,291.219 29.800 C 291.845 30.350,291.710 30.022,290.918 29.070 C 289.532 27.404,289.533 27.327,290.940 26.963 C 291.825 26.734,291.928 26.577,291.200 26.565 C 290.540 26.554,288.816 26.886,287.368 27.303 M288.000 28.800 C 287.321 29.239,287.204 29.581,287.729 29.588 C 288.520 29.598,288.584 30.270,288.036 32.800 C 287.988 33.020,287.421 32.501,286.775 31.647 C 286.014 30.642,285.600 30.477,285.600 31.180 C 285.600 31.778,285.362 32.029,285.072 31.738 C 284.420 31.086,287.118 27.995,288.324 28.012 C 288.806 28.019,288.660 28.373,288.000 28.800 M380.111 32.069 C 377.352 34.306,376.311 33.944,378.955 31.668 C 380.190 30.605,381.380 29.916,381.600 30.137 C 381.820 30.357,381.150 31.227,380.111 32.069 M31.883 35.403 C 32.286 35.806,33.467 36.002,34.508 35.838 C 36.109 35.586,35.996 35.473,33.775 35.105 C 32.185 34.841,31.439 34.959,31.883 35.403 M371.634 43.145 C 371.088 44.029,372.350 44.984,373.088 44.245 C 373.849 43.484,373.707 42.400,372.847 42.400 C 372.433 42.400,371.887 42.735,371.634 43.145 M36.891 47.207 C 37.941 51.881,38.957 53.547,41.301 54.438 C 43.796 55.387,46.400 55.424,46.400 54.511 C 46.400 54.132,45.556 53.983,44.525 54.180 C 41.812 54.699,38.294 51.419,38.035 48.128 C 37.922 46.688,37.446 45.126,36.978 44.658 C 36.376 44.056,36.351 44.803,36.891 47.207 M272.800 47.600 C 272.235 48.281,271.952 49.019,272.172 49.239 C 272.392 49.459,273.035 49.081,273.600 48.400 C 274.165 47.719,274.448 46.981,274.228 46.761 C 274.008 46.541,273.365 46.919,272.800 47.600 M140.434 57.545 C 140.181 57.954,140.395 58.550,140.911 58.868 C 141.538 59.256,141.631 59.098,141.192 58.388 C 140.719 57.622,140.900 57.467,141.843 57.829 C 142.561 58.105,143.362 57.986,143.622 57.565 C 143.882 57.144,143.374 56.800,142.494 56.800 C 141.614 56.800,140.687 57.135,140.434 57.545 M145.600 58.400 C 146.698 59.110,146.158 59.556,144.541 59.275 C 144.178 59.212,144.099 59.514,144.366 59.945 C 144.633 60.377,145.439 60.505,146.157 60.229 C 147.030 59.894,147.271 60.038,146.884 60.664 C 146.566 61.179,146.687 61.600,147.153 61.600 C 148.214 61.600,148.218 61.102,147.172 59.147 C 146.716 58.296,145.906 57.606,145.372 57.612 C 144.761 57.620,144.846 57.913,145.600 58.400 M262.775 58.440 C 262.015 59.670,263.056 60.464,264.083 59.437 C 264.658 58.862,264.671 58.415,264.125 58.077 C 263.677 57.800,263.070 57.964,262.775 58.440 M46.400 61.733 C 46.400 62.687,46.650 63.216,46.956 62.910 C 47.821 62.046,47.943 60.000,47.129 60.000 C 46.728 60.000,46.400 60.780,46.400 61.733 M262.600 61.330 C 262.050 61.552,261.600 62.625,261.600 63.714 C 261.600 64.852,261.946 65.481,262.413 65.192 C 262.860 64.916,263.009 64.339,262.744 63.910 C 262.479 63.481,262.697 62.606,263.229 61.965 C 264.249 60.736,264.199 60.685,262.600 61.330 M49.918 65.733 C 49.691 66.100,50.247 66.400,51.153 66.400 C 52.059 66.400,52.800 66.100,52.800 65.733 C 52.800 65.367,52.244 65.067,51.565 65.067 C 50.885 65.067,50.144 65.367,49.918 65.733 M254.529 69.400 C 252.755 70.907,251.247 76.800,252.636 76.800 C 253.084 76.800,253.247 76.024,252.999 75.075 C 252.692 73.902,252.841 73.531,253.465 73.916 C 254.061 74.285,254.214 74.045,253.901 73.231 C 253.388 71.894,254.854 69.600,256.222 69.600 C 256.676 69.600,256.421 70.293,255.655 71.139 C 254.328 72.606,254.331 72.668,255.731 72.459 C 256.678 72.318,257.165 71.620,257.102 70.498 C 257.024 69.092,257.331 68.848,258.702 69.231 C 260.054 69.608,260.155 69.534,259.200 68.865 C 257.499 67.674,256.415 67.798,254.529 69.400 M351.176 69.171 C 352.337 70.569,351.711 72.913,350.259 72.607 C 349.716 72.493,349.247 72.940,349.216 73.600 C 349.179 74.399,348.431 74.750,346.980 74.649 C 345.781 74.567,344.800 74.777,344.800 75.116 C 344.800 76.412,345.818 76.641,348.081 75.852 C 352.091 74.454,354.346 69.564,351.487 68.467 C 350.393 68.048,350.341 68.165,351.176 69.171 M150.648 71.407 C 151.884 72.396,153.586 74.104,154.430 75.203 C 155.726 76.890,155.967 76.973,155.982 75.738 C 156.005 73.853,151.760 69.599,149.862 69.604 C 148.678 69.607,148.827 69.950,150.648 71.407 M59.203 77.462 C 59.197 81.034,65.354 85.539,66.876 83.076 C 67.197 82.558,67.099 82.368,66.654 82.643 C 65.524 83.342,62.526 81.044,60.734 78.107 C 59.318 75.784,59.206 75.737,59.203 77.462 M161.083 87.750 C 161.880 88.547,164.802 88.650,164.316 87.864 C 164.090 87.499,163.147 87.200,162.219 87.200 C 161.292 87.200,160.781 87.447,161.083 87.750 M67.200 92.025 C 67.200 92.891,67.920 94.320,68.800 95.200 C 70.514 96.914,72.800 97.344,72.800 95.953 C 72.800 95.487,72.472 95.308,72.072 95.555 C 70.994 96.222,68.993 95.258,68.435 93.802 C 68.166 93.101,68.348 92.279,68.840 91.975 C 69.439 91.605,69.316 91.262,68.467 90.936 C 67.575 90.594,67.200 90.917,67.200 92.025 M235.200 98.229 C 235.200 98.574,235.920 98.857,236.800 98.857 C 237.680 98.857,238.400 98.574,238.400 98.229 C 238.400 97.883,237.680 97.600,236.800 97.600 C 235.920 97.600,235.200 97.883,235.200 98.229 M324.146 98.854 C 321.838 101.468,323.526 102.595,325.950 100.059 C 328.001 97.913,328.102 97.604,326.750 97.630 C 325.897 97.647,324.726 98.198,324.146 98.854 M169.275 99.079 C 168.999 99.525,169.557 99.684,170.599 99.456 C 172.070 99.134,172.180 99.225,171.200 99.955 C 170.247 100.665,170.430 100.749,172.095 100.364 C 174.690 99.764,177.600 103.011,177.600 106.508 C 177.600 107.769,177.882 108.800,178.226 108.800 C 179.791 108.800,177.894 101.883,175.883 100.260 C 174.297 98.979,169.830 98.181,169.275 99.079 M223.397 109.600 C 223.431 109.820,223.040 111.013,222.529 112.252 C 221.367 115.068,221.332 117.600,222.454 117.600 C 222.975 117.600,223.086 116.900,222.739 115.806 C 222.214 114.153,222.282 114.106,223.613 115.206 C 224.965 116.324,224.988 116.290,223.977 114.665 C 222.845 112.848,223.904 110.400,225.822 110.400 C 226.276 110.400,226.051 111.060,225.321 111.867 C 224.232 113.070,224.202 113.333,225.152 113.333 C 225.790 113.333,226.241 112.943,226.156 112.467 C 226.070 111.990,226.720 111.663,227.600 111.741 L 229.200 111.882 227.600 110.646 C 226.066 109.461,226.094 109.432,228.267 109.937 C 229.773 110.287,230.358 110.180,230.010 109.617 C 229.506 108.801,223.271 108.785,223.397 109.600 M318.061 113.405 C 317.815 113.651,318.061 114.403,318.607 115.076 C 319.440 116.102,319.374 116.215,318.200 115.775 C 317.430 115.486,316.800 115.599,316.800 116.025 C 316.800 116.451,317.271 116.800,317.847 116.800 C 319.425 116.800,322.086 114.619,321.376 113.909 C 320.583 113.116,318.645 112.822,318.061 113.405 M88.271 121.400 C 89.004 125.981,96.000 130.000,96.000 125.840 C 96.000 124.782,95.787 124.693,95.040 125.440 C 93.558 126.922,92.472 126.575,93.663 125.000 C 94.565 123.809,94.555 123.749,93.601 124.600 C 92.985 125.150,92.192 125.600,91.840 125.600 C 91.488 125.600,91.290 125.150,91.400 124.600 C 91.510 124.050,91.150 123.690,90.600 123.800 C 90.050 123.910,89.600 123.712,89.600 123.360 C 89.600 123.008,90.050 122.215,90.600 121.599 C 91.451 120.645,91.391 120.635,90.200 121.537 C 89.011 122.436,88.800 122.406,88.800 121.338 C 88.800 120.646,89.430 119.713,90.200 119.264 C 91.434 118.545,91.374 118.446,89.695 118.424 C 87.940 118.402,87.828 118.635,88.271 121.400 M312.009 120.200 C 311.656 122.566,311.597 122.763,310.875 124.000 C 310.330 124.935,310.480 124.913,311.556 123.902 C 312.394 123.116,312.796 121.855,312.578 120.702 C 312.326 119.372,312.155 119.221,312.009 120.200 M191.898 131.000 C 190.905 132.267,190.932 132.296,192.190 131.310 C 193.775 130.068,196.401 130.703,195.527 132.118 C 195.182 132.677,195.301 132.832,195.827 132.507 C 196.308 132.210,197.073 132.604,197.527 133.383 C 198.226 134.584,198.355 134.606,198.376 133.524 C 198.436 130.347,193.820 128.549,191.898 131.000 M101.498 137.000 C 102.103 137.772,103.539 138.351,104.698 138.291 L 106.800 138.182 104.800 137.814 C 103.700 137.612,102.260 137.031,101.600 136.523 C 100.556 135.720,100.543 135.782,101.498 137.000 M297.780 140.324 C 297.298 141.383,295.811 142.894,294.477 143.682 C 290.777 145.867,290.823 147.321,294.529 145.343 C 298.013 143.483,301.527 138.400,299.328 138.400 C 298.959 138.400,298.262 139.266,297.780 140.324 M202.400 140.800 C 200.426 142.774,200.322 144.822,202.200 144.737 C 203.036 144.699,203.197 144.511,202.600 144.270 C 202.050 144.048,201.600 143.515,201.600 143.086 C 201.600 142.657,201.956 142.526,202.391 142.794 C 202.861 143.085,202.967 142.724,202.652 141.903 C 202.241 140.833,202.433 140.641,203.503 141.052 C 204.324 141.367,204.685 141.261,204.394 140.791 C 204.126 140.356,204.257 140.000,204.686 140.000 C 205.115 140.000,205.648 140.450,205.870 141.000 C 206.111 141.597,206.299 141.436,206.337 140.600 C 206.422 138.722,204.374 138.826,202.400 140.800 M109.423 150.856 C 110.702 154.741,112.514 156.385,116.400 157.186 C 118.610 157.642,118.555 157.553,115.705 156.064 C 112.139 154.200,110.704 152.500,110.082 149.400 C 109.839 148.190,109.320 147.200,108.930 147.200 C 108.539 147.200,108.761 148.845,109.423 150.856 M290.968 150.399 C 290.738 151.279,290.876 152.200,291.275 152.446 C 291.674 152.693,292.000 151.973,292.000 150.847 C 292.000 148.396,291.544 148.198,290.968 150.399 M290.102 154.800 C 290.654 156.279,290.582 156.309,289.150 155.200 C 287.685 154.065,287.665 154.085,288.800 155.550 C 289.909 156.982,289.879 157.054,288.400 156.502 C 287.111 156.021,286.996 156.102,287.806 156.918 C 288.617 157.735,289.075 157.668,290.171 156.571 C 291.268 155.475,291.335 155.017,290.518 154.206 C 289.702 153.396,289.621 153.511,290.102 154.800 M284.400 157.600 C 284.128 158.040,284.668 158.400,285.600 158.400 C 286.532 158.400,287.072 158.040,286.800 157.600 C 286.528 157.160,285.988 156.800,285.600 156.800 C 285.212 156.800,284.672 157.160,284.400 157.600 M280.405 165.521 C 280.816 166.242,280.517 167.028,279.569 167.721 C 278.758 168.315,278.479 168.800,278.949 168.800 C 280.666 168.800,281.952 166.425,280.809 165.366 C 279.981 164.600,279.897 164.632,280.405 165.521 M122.136 167.533 C 121.558 169.040,124.367 169.347,125.276 167.876 C 125.648 167.275,125.494 167.171,124.834 167.579 C 124.262 167.933,123.560 167.783,123.222 167.235 C 122.782 166.524,122.493 166.603,122.136 167.533 M127.905 170.575 C 128.273 172.796,128.386 172.909,128.638 171.308 C 128.802 170.267,128.606 169.086,128.203 168.683 C 127.759 168.239,127.641 168.985,127.905 170.575 M133.600 179.363 C 133.600 180.845,137.408 184.459,138.169 183.698 C 138.925 182.941,137.552 180.829,135.356 179.371 C 133.827 178.355,133.600 178.354,133.600 179.363 M269.908 179.012 C 269.417 179.336,268.781 180.353,268.494 181.273 C 267.774 183.584,264.555 186.458,262.513 186.611 C 261.581 186.682,261.123 187.043,261.494 187.414 C 262.430 188.350,266.039 187.331,267.461 185.728 C 268.459 184.605,271.437 178.375,270.959 178.412 C 270.872 178.419,270.399 178.689,269.908 179.012 M266.782 180.855 C 266.494 181.766,265.119 183.204,263.729 184.052 C 262.338 184.900,261.678 185.595,262.262 185.597 C 263.530 185.601,268.000 181.289,268.000 180.062 C 268.000 178.653,267.346 179.080,266.782 180.855 M139.512 194.561 C 140.161 197.803,140.608 198.242,143.949 198.910 C 145.839 199.288,146.484 199.183,146.099 198.560 C 145.796 198.070,144.961 197.895,144.243 198.171 C 143.376 198.504,143.130 198.360,143.510 197.745 C 143.878 197.150,143.661 196.980,142.903 197.271 C 141.346 197.869,139.383 194.476,140.784 193.610 C 141.455 193.195,141.331 192.868,140.364 192.497 C 139.188 192.046,139.068 192.338,139.512 194.561 M260.000 195.600 C 260.000 196.260,259.550 196.710,259.000 196.600 C 258.450 196.490,258.105 196.894,258.233 197.498 C 258.381 198.197,258.017 198.424,257.233 198.123 C 256.555 197.863,256.000 197.999,256.000 198.425 C 256.000 199.630,258.148 199.338,259.543 197.943 C 260.719 196.767,261.291 194.400,260.400 194.400 C 260.180 194.400,260.000 194.940,260.000 195.600 M141.290 223.101 C 139.172 225.441,138.605 230.400,140.455 230.400 C 141.595 230.400,141.707 230.187,140.960 229.440 C 139.325 227.805,139.702 225.971,141.400 227.302 C 142.677 228.304,142.701 228.274,141.669 226.960 C 140.678 225.698,140.722 225.351,142.025 224.160 C 143.429 222.876,143.454 222.878,142.458 224.200 C 141.878 224.970,141.538 225.628,141.702 225.661 C 144.376 226.210,144.747 226.162,144.226 225.330 C 142.510 222.585,143.467 221.685,145.853 223.800 C 147.386 225.159,147.405 225.147,146.488 223.400 C 145.338 221.208,143.118 221.080,141.290 223.101 M266.008 232.013 C 266.284 232.460,266.907 232.581,267.391 232.282 C 267.957 231.932,268.090 232.211,267.765 233.059 C 267.486 233.786,267.515 234.342,267.829 234.296 C 269.374 234.065,270.446 234.478,270.034 235.145 C 269.781 235.554,269.940 236.116,270.387 236.392 C 271.862 237.303,271.233 234.433,269.600 232.800 C 267.967 231.167,265.097 230.538,266.008 232.013 M136.250 240.343 C 135.484 241.216,135.658 241.403,137.148 241.312 C 138.269 241.244,138.845 240.807,138.612 240.200 C 138.126 238.933,137.452 238.974,136.250 240.343 M130.456 241.548 C 129.827 241.946,129.220 242.931,129.107 243.736 C 128.920 245.068,129.008 245.056,130.085 243.600 C 130.736 242.720,131.583 242.000,131.968 242.000 C 132.352 242.000,132.937 241.730,133.267 241.400 C 134.112 240.554,131.837 240.674,130.456 241.548 M271.672 243.883 C 271.440 244.259,272.126 244.965,273.196 245.453 C 274.266 245.940,276.059 247.793,277.181 249.570 C 278.302 251.346,279.811 252.800,280.534 252.800 C 281.720 252.800,281.729 252.664,280.619 251.400 C 279.942 250.630,279.135 249.165,278.823 248.145 C 278.008 245.473,272.660 242.286,271.672 243.883 M271.200 245.863 C 271.200 246.339,275.968 251.200,276.435 251.200 C 277.399 251.200,275.113 248.127,273.232 246.895 C 272.115 246.162,271.200 245.698,271.200 245.863 M128.109 249.000 C 128.021 250.769,127.618 251.200,126.047 251.200 C 124.973 251.200,123.903 251.509,123.670 251.888 C 123.098 252.812,127.196 252.324,128.168 251.352 C 128.590 250.930,128.774 249.733,128.577 248.692 C 128.247 246.955,128.209 246.981,128.109 249.000 M119.634 252.745 C 119.088 253.629,120.350 254.584,121.088 253.845 C 121.849 253.084,121.707 252.000,120.847 252.000 C 120.433 252.000,119.887 252.335,119.634 252.745 M113.172 263.161 C 110.118 264.399,106.182 273.448,109.202 272.289 C 109.730 272.086,110.005 271.094,109.812 270.085 C 109.191 266.838,112.881 263.430,115.706 264.642 C 117.894 265.581,117.926 265.565,116.400 264.313 C 114.818 263.015,114.821 263.005,116.601 263.425 C 117.592 263.659,118.200 263.524,117.954 263.125 C 117.412 262.249,115.385 262.264,113.172 263.161 M292.755 274.062 C 291.692 275.351,291.739 275.388,293.347 274.531 C 295.600 273.331,296.249 273.352,295.470 274.600 C 294.669 275.882,294.349 277.918,295.060 277.207 C 295.357 276.910,295.600 276.277,295.600 275.800 C 295.600 275.323,296.140 274.764,296.800 274.557 C 297.460 274.350,297.733 274.467,297.407 274.817 C 297.081 275.167,297.215 275.936,297.705 276.526 C 298.368 277.325,298.315 277.958,297.498 279.000 C 296.482 280.296,296.516 280.310,297.950 279.200 C 299.382 278.091,299.454 278.121,298.902 279.600 C 298.437 280.848,298.518 280.989,299.272 280.241 C 300.026 279.492,299.945 278.835,298.900 277.241 C 298.165 276.118,297.888 275.200,298.285 275.200 C 299.831 275.200,301.070 279.910,299.897 281.331 C 298.956 282.471,298.971 282.601,300.000 282.247 C 301.533 281.719,301.455 276.312,299.892 274.749 C 297.991 272.848,294.068 272.471,292.755 274.062 M199.575 274.800 C 199.369 275.460,199.001 276.619,198.758 277.376 C 198.514 278.132,198.569 278.498,198.879 278.188 C 199.188 277.878,199.929 278.249,200.526 279.012 C 201.466 280.217,201.499 280.092,200.772 278.062 C 200.311 276.776,200.118 275.246,200.342 274.662 C 200.566 274.078,200.570 273.600,200.350 273.600 C 200.130 273.600,199.781 274.140,199.575 274.800 M203.988 283.976 C 205.356 286.657,209.237 289.430,210.231 288.435 C 210.465 288.202,209.339 286.731,207.728 285.167 C 206.118 283.603,204.800 282.040,204.800 281.695 C 204.800 281.349,204.283 281.067,203.652 281.067 C 202.716 281.067,202.778 281.604,203.988 283.976 M208.404 283.205 C 209.203 284.088,210.030 284.636,210.242 284.424 C 210.780 283.887,208.785 281.600,207.778 281.600 C 207.324 281.600,207.606 282.322,208.404 283.205 M210.400 294.000 C 210.400 295.100,210.670 296.000,211.000 296.000 C 211.330 296.000,211.600 295.100,211.600 294.000 C 211.600 292.900,211.330 292.000,211.000 292.000 C 210.670 292.000,210.400 292.900,210.400 294.000 M89.257 294.057 C 87.809 295.505,87.616 296.800,88.847 296.800 C 89.313 296.800,89.497 296.481,89.256 296.091 C 88.749 295.270,90.725 293.392,91.393 294.060 C 91.639 294.306,92.077 294.122,92.367 293.653 C 93.189 292.323,90.663 292.651,89.257 294.057 M187.000 295.313 C 188.512 296.836,188.198 297.947,186.600 296.724 C 185.830 296.135,185.467 295.968,185.793 296.353 C 186.620 297.329,184.820 299.303,183.709 298.638 C 183.209 298.338,183.294 298.702,183.898 299.446 C 185.143 300.981,184.029 301.309,182.560 299.840 C 181.813 299.093,181.600 299.182,181.600 300.240 C 181.600 301.815,183.351 301.997,185.853 300.680 C 189.039 299.003,189.891 295.786,187.400 294.838 C 186.277 294.411,186.198 294.505,187.000 295.313 M311.520 297.252 C 311.520 298.323,311.808 299.200,312.160 299.200 C 312.512 299.200,312.800 298.501,312.800 297.647 C 312.800 296.793,312.512 295.916,312.160 295.699 C 311.808 295.481,311.520 296.180,311.520 297.252 M211.200 298.772 C 211.200 299.416,211.896 300.316,212.747 300.772 C 214.734 301.835,215.200 301.815,215.200 300.667 C 215.200 300.153,214.963 299.970,214.674 300.260 C 213.950 300.983,211.912 299.190,212.456 298.309 C 212.697 297.919,212.513 297.600,212.047 297.600 C 211.581 297.600,211.200 298.127,211.200 298.772 M85.553 303.959 C 81.597 305.159,80.119 306.416,79.160 309.394 C 78.627 311.047,77.884 312.790,77.508 313.267 C 77.093 313.794,77.228 314.133,77.853 314.133 C 78.417 314.133,78.935 313.402,79.002 312.508 C 79.181 310.136,81.733 306.994,84.720 305.470 C 86.154 304.739,87.538 303.929,87.797 303.670 C 88.342 303.125,88.271 303.134,85.553 303.959 M316.863 304.600 C 316.901 305.436,317.089 305.597,317.330 305.000 C 317.552 304.450,318.085 304.000,318.514 304.000 C 318.943 304.000,319.066 304.369,318.788 304.820 C 318.509 305.271,318.758 305.541,319.341 305.420 C 319.923 305.299,320.301 305.677,320.180 306.259 C 320.059 306.842,320.329 307.091,320.780 306.812 C 321.231 306.534,321.600 306.657,321.600 307.086 C 321.600 307.515,321.168 308.011,320.640 308.187 C 320.040 308.387,320.190 308.702,321.040 309.028 C 322.996 309.779,322.828 306.828,320.800 304.800 C 318.826 302.826,316.778 302.722,316.863 304.600 M322.743 316.826 C 322.743 317.692,323.143 318.400,323.632 318.400 C 324.969 318.400,328.239 322.166,327.683 323.066 C 327.399 323.525,327.870 323.675,328.816 323.428 C 330.398 323.014,330.402 322.951,328.988 320.531 C 326.976 317.084,322.743 314.574,322.743 316.826 M167.305 321.074 C 166.815 321.664,166.622 322.355,166.875 322.609 C 168.554 324.288,161.227 332.053,159.166 330.779 C 158.891 330.609,158.667 330.960,158.667 331.559 C 158.667 332.268,159.108 332.440,159.933 332.053 C 165.544 329.423,166.051 328.991,167.065 325.972 C 168.965 320.317,169.029 318.996,167.305 321.074 M323.200 320.604 C 323.200 321.044,323.740 321.852,324.400 322.400 C 325.069 322.956,325.600 323.042,325.600 322.596 C 325.600 322.156,325.060 321.348,324.400 320.800 C 323.731 320.244,323.200 320.158,323.200 320.604 M231.263 323.832 C 231.210 326.041,231.378 326.297,232.311 325.432 C 232.923 324.864,233.157 324.220,232.831 324.000 C 232.506 323.780,232.034 323.060,231.783 322.400 C 231.532 321.740,231.298 322.384,231.263 323.832 M330.889 323.856 C 330.630 324.276,330.925 325.040,331.545 325.554 C 332.434 326.292,332.634 326.232,332.492 325.268 C 332.250 323.616,331.464 322.925,330.889 323.856 M232.914 327.112 C 231.423 328.058,232.462 330.985,234.521 331.639 C 235.423 331.925,236.575 331.742,237.081 331.232 C 237.776 330.531,237.656 330.436,236.590 330.842 C 235.814 331.137,234.644 330.935,233.990 330.392 C 232.748 329.361,232.304 327.599,233.467 328.318 C 233.833 328.544,234.133 328.205,234.133 327.565 C 234.133 326.924,234.103 326.406,234.067 326.412 C 234.030 326.419,233.511 326.734,232.914 327.112 M238.911 331.600 C 238.592 332.431,238.965 332.800,240.123 332.800 C 241.519 332.800,241.631 332.602,240.800 331.600 C 240.252 330.940,239.707 330.400,239.588 330.400 C 239.469 330.400,239.164 330.940,238.911 331.600 M62.240 334.560 C 62.987 335.307,63.413 335.307,64.160 334.560 C 64.907 333.813,64.693 333.600,63.200 333.600 C 61.707 333.600,61.493 333.813,62.240 334.560 M338.972 334.960 C 339.317 335.859,339.606 335.983,339.825 335.326 C 340.085 334.544,340.437 334.553,341.478 335.367 C 342.659 336.290,342.683 336.251,341.702 335.000 C 340.265 333.168,338.273 333.138,338.972 334.960 M58.372 335.634 C 57.568 336.603,57.557 337.075,58.321 337.834 C 59.084 338.591,59.166 338.454,58.698 337.200 C 58.146 335.721,58.218 335.691,59.650 336.800 C 61.115 337.935,61.135 337.915,60.000 336.450 C 58.905 335.036,58.926 334.948,60.242 335.441 C 61.108 335.766,61.488 335.666,61.194 335.191 C 60.497 334.063,59.552 334.211,58.372 335.634 M156.400 338.451 L 154.800 339.088 156.400 339.168 C 157.874 339.242,157.889 339.313,156.600 340.064 C 155.097 340.940,154.704 342.400,155.972 342.400 C 156.881 342.400,158.617 339.402,158.252 338.463 C 158.113 338.106,157.280 338.101,156.400 338.451 M56.824 340.440 C 56.846 342.509,56.955 342.618,57.707 341.323 C 58.323 340.264,58.316 339.596,57.683 338.963 C 57.039 338.319,56.807 338.719,56.824 340.440 M150.400 342.571 C 150.400 342.917,151.120 343.200,152.000 343.200 C 152.880 343.200,153.600 342.917,153.600 342.571 C 153.600 342.226,152.880 341.943,152.000 341.943 C 151.120 341.943,150.400 342.226,150.400 342.571 M344.800 345.600 C 346.045 345.999,346.289 346.271,345.447 346.320 C 344.703 346.364,343.874 346.756,343.606 347.191 C 343.322 347.650,343.655 347.775,344.399 347.490 C 345.165 347.196,346.471 347.740,347.641 348.838 C 349.558 350.640,350.375 352.573,348.809 351.606 C 348.347 351.320,348.227 351.661,348.520 352.426 C 348.922 353.473,349.158 353.521,349.699 352.667 C 350.217 351.850,350.378 351.928,350.388 353.000 C 350.394 353.770,350.929 354.400,351.575 354.400 C 352.253 354.400,352.568 354.873,352.320 355.519 C 352.084 356.135,352.225 356.844,352.633 357.097 C 353.669 357.737,352.985 352.392,351.609 349.099 C 350.453 346.331,347.778 344.732,344.548 344.880 C 342.926 344.954,342.944 345.006,344.800 345.600 M53.754 346.940 C 51.093 348.252,46.894 354.631,48.971 354.207 C 49.526 354.093,50.401 353.051,50.914 351.891 C 51.427 350.730,52.961 349.123,54.323 348.318 C 58.288 345.976,57.852 344.921,53.754 346.940 M350.200 349.580 C 351.190 351.041,351.986 352.633,351.968 353.118 C 351.950 353.603,351.370 352.920,350.677 351.600 C 349.985 350.280,348.650 348.543,347.709 347.741 C 346.679 346.862,346.477 346.409,347.200 346.603 C 347.860 346.779,349.210 348.119,350.200 349.580 M140.200 353.088 C 139.210 353.578,138.400 354.497,138.400 355.129 C 138.400 355.934,138.999 355.716,140.400 354.400 C 142.101 352.802,142.933 351.738,142.200 352.098 C 142.090 352.152,141.190 352.598,140.200 353.088 M252.851 357.036 C 252.785 358.899,256.312 362.418,258.164 362.337 C 259.279 362.288,259.332 362.175,258.400 361.832 C 256.562 361.157,254.284 358.978,253.556 357.200 C 252.980 355.793,252.895 355.773,252.851 357.036 M136.026 363.783 C 134.978 364.963,135.006 365.046,136.292 364.552 C 137.083 364.249,137.881 364.000,138.065 364.000 C 138.249 364.000,138.400 363.640,138.400 363.200 C 138.400 362.023,137.363 362.278,136.026 363.783 M40.000 364.729 C 40.000 365.543,42.046 365.421,42.910 364.556 C 43.216 364.250,42.687 364.000,41.733 364.000 C 40.780 364.000,40.000 364.328,40.000 364.729 M261.600 367.019 C 261.600 367.947,261.899 368.890,262.264 369.116 C 263.050 369.602,262.947 366.680,262.150 365.883 C 261.847 365.581,261.600 366.092,261.600 367.019 M135.840 367.360 C 137.324 368.844,136.974 369.929,135.400 368.724 C 134.630 368.135,134.267 367.968,134.593 368.353 C 135.331 369.224,133.676 371.341,132.719 370.750 C 132.333 370.512,132.249 370.917,132.530 371.651 C 132.938 372.713,132.705 372.878,131.388 372.460 C 130.431 372.156,129.486 372.338,129.143 372.892 C 128.064 374.638,134.684 372.990,136.200 371.136 C 137.999 368.934,138.021 366.400,136.240 366.400 C 135.182 366.400,135.093 366.613,135.840 367.360 M263.098 372.200 C 263.702 372.970,264.512 373.600,264.898 373.600 C 265.284 373.600,265.572 372.970,265.537 372.200 C 265.497 371.310,265.323 371.176,265.059 371.833 C 264.720 372.678,264.403 372.678,263.322 371.833 C 262.141 370.910,262.117 370.949,263.098 372.200 M364.000 374.857 C 364.000 375.109,364.540 375.854,365.200 376.514 C 366.267 377.581,366.400 377.530,366.400 376.057 C 366.400 375.117,365.880 374.400,365.200 374.400 C 364.540 374.400,364.000 374.606,364.000 374.857 M28.595 376.319 C 27.932 376.982,27.258 377.392,27.095 377.230 C 26.933 377.069,26.701 378.346,26.581 380.068 C 26.385 382.863,26.557 383.197,28.181 383.176 C 29.801 383.154,29.847 383.062,28.600 382.336 C 26.497 381.111,26.866 379.770,29.000 380.880 C 29.990 381.395,30.533 381.531,30.207 381.182 C 29.363 380.279,31.197 378.311,32.291 378.946 C 32.791 379.237,32.514 378.693,31.676 377.738 C 30.065 375.901,30.935 375.297,32.740 377.000 C 33.595 377.807,33.730 377.768,33.437 376.800 C 32.937 375.146,30.055 374.859,28.595 376.319 M368.000 375.975 C 368.000 376.401,368.630 376.514,369.400 376.225 C 370.567 375.788,370.637 375.901,369.819 376.909 C 368.490 378.547,370.140 380.412,371.741 379.083 C 373.062 377.986,373.148 379.332,371.840 380.640 C 371.093 381.387,371.182 381.600,372.240 381.600 C 374.121 381.600,373.980 378.780,372.000 376.800 C 370.325 375.125,368.000 374.646,368.000 375.975 M30.744 377.509 C 31.263 378.349,29.267 380.200,28.582 379.515 C 27.964 378.897,28.780 376.800,29.638 376.800 C 30.005 376.800,30.503 377.119,30.744 377.509 M126.331 380.648 C 124.427 382.678,123.804 384.000,124.753 384.000 C 125.219 384.000,125.600 383.460,125.600 382.800 C 125.600 382.140,126.140 381.600,126.800 381.600 C 127.460 381.600,128.000 381.060,128.000 380.400 C 128.000 378.938,127.925 378.949,126.331 380.648 M272.000 382.323 C 272.000 382.762,272.455 383.408,273.011 383.760 C 273.567 384.112,274.377 385.443,274.811 386.718 C 275.641 389.158,278.381 391.516,281.395 392.386 C 283.759 393.069,283.096 391.086,280.592 389.983 C 279.614 389.552,278.091 388.086,277.207 386.725 C 275.421 383.973,272.000 381.081,272.000 382.323 M277.578 385.559 C 278.438 387.165,281.683 389.784,282.188 389.279 C 282.495 388.971,277.714 384.000,277.110 384.000 C 276.909 384.000,277.119 384.702,277.578 385.559 M22.345 392.299 L 19.490 394.956 21.743 394.878 C 22.982 394.835,23.997 394.350,23.998 393.800 C 23.999 393.250,24.318 392.800,24.707 392.800 C 25.095 392.800,25.602 392.080,25.832 391.200 C 26.412 388.980,25.656 389.219,22.345 392.299 M374.400 391.107 C 374.400 392.038,374.799 392.800,375.286 392.800 C 375.773 392.800,375.980 393.299,375.745 393.909 C 375.447 394.688,375.780 394.899,376.864 394.615 C 377.714 394.393,378.947 394.658,379.604 395.204 C 380.262 395.749,380.770 395.882,380.732 395.498 C 380.552 393.642,374.400 389.376,374.400 391.107 M116.539 393.927 C 116.275 394.615,115.389 394.991,114.457 394.811 C 113.564 394.639,112.590 394.892,112.293 395.373 C 111.969 395.897,112.123 396.019,112.676 395.676 C 113.819 394.970,113.853 395.633,112.776 397.644 C 112.323 398.491,110.943 399.705,109.710 400.343 C 106.414 402.047,106.714 403.941,110.156 403.165 C 113.839 402.334,114.879 401.300,116.339 397.015 C 117.474 393.685,117.644 391.046,116.539 393.927 M115.200 396.462 C 115.200 398.196,110.852 402.401,109.062 402.397 C 108.030 402.395,108.370 401.925,110.216 400.799 C 111.655 399.922,113.243 398.303,113.745 397.202 C 114.799 394.889,115.200 394.684,115.200 396.462 M282.933 396.533 C 281.885 397.582,282.418 400.000,283.698 400.000 C 284.744 400.000,284.808 399.774,284.029 398.835 C 283.497 398.194,283.294 397.294,283.578 396.835 C 284.156 395.901,283.754 395.713,282.933 396.533 M15.200 402.640 C 15.200 403.652,14.750 404.933,14.200 405.487 C 13.398 406.295,13.477 406.389,14.600 405.962 C 15.845 405.488,16.754 400.800,15.600 400.800 C 15.380 400.800,15.200 401.628,15.200 402.640 M283.200 401.502 C 283.200 402.525,285.552 404.314,286.133 403.733 C 286.714 403.152,284.925 400.800,283.902 400.800 C 283.516 400.800,283.200 401.116,283.200 401.502 M384.186 403.200 C 384.186 404.740,384.350 405.370,384.551 404.600 C 384.753 403.830,384.753 402.570,384.551 401.800 C 384.350 401.030,384.186 401.660,384.186 403.200 M288.133 403.200 C 288.595 404.614,292.000 405.326,292.000 404.008 C 292.000 403.512,291.624 403.338,291.165 403.622 C 290.706 403.906,289.747 403.657,289.035 403.069 C 287.937 402.163,287.800 402.183,288.133 403.200 M6.834 406.345 C 6.288 407.229,7.550 408.184,8.288 407.445 C 9.049 406.684,8.907 405.600,8.047 405.600 C 7.633 405.600,7.087 405.935,6.834 406.345 M390.400 406.667 C 390.400 407.348,390.756 408.126,391.191 408.394 C 391.666 408.688,391.766 408.308,391.441 407.442 C 390.967 406.178,391.066 406.135,392.241 407.091 C 392.979 407.691,393.400 408.476,393.178 408.835 C 392.956 409.195,393.137 409.714,393.582 409.989 C 394.058 410.283,394.320 409.650,394.220 408.444 C 394.127 407.320,393.799 406.400,393.491 406.400 C 393.183 406.400,392.361 406.181,391.665 405.914 C 390.847 405.600,390.400 405.867,390.400 406.667 M106.300 410.000 C 106.245 410.220,106.149 410.670,106.088 411.000 C 105.739 412.867,104.591 413.756,103.912 412.685 C 103.376 411.840,103.222 411.909,103.212 413.000 C 103.206 413.770,103.534 414.400,103.943 414.400 C 105.084 414.400,107.200 412.024,107.200 410.743 C 107.200 409.675,106.521 409.114,106.300 410.000 M293.953 413.976 C 295.833 415.458,297.052 415.561,296.604 414.200 C 296.423 413.650,295.403 413.099,294.337 412.976 C 292.461 412.760,292.449 412.792,293.953 413.976 M301.312 414.955 C 300.411 415.856,300.763 416.800,302.000 416.800 C 302.660 416.800,303.200 416.461,303.200 416.047 C 303.200 415.038,301.951 414.316,301.312 414.955 M394.034 416.000 C 394.442 416.660,394.781 417.560,394.788 418.000 C 394.794 418.440,396.060 418.857,397.600 418.927 L 400.400 419.055 397.600 418.433 L 394.800 417.811 397.600 417.585 C 400.376 417.362,400.380 417.357,398.000 417.009 C 396.680 416.816,395.081 416.240,394.446 415.729 C 393.513 414.977,393.434 415.029,394.034 416.000 M0.000 416.800 C 0.000 417.240,1.080 417.600,2.400 417.600 C 3.720 417.600,4.800 417.240,4.800 416.800 C 4.800 416.360,3.720 416.000,2.400 416.000 C 1.080 416.000,0.000 416.360,0.000 416.800 M1.000 421.351 C 1.770 421.553,3.030 421.553,3.800 421.351 C 4.570 421.150,3.940 420.986,2.400 420.986 C 0.860 420.986,0.230 421.150,1.000 421.351 M88.916 426.676 C 86.673 429.064,86.594 430.780,88.782 429.610 C 90.682 428.593,92.277 425.866,91.318 425.273 C 90.941 425.040,89.860 425.671,88.916 426.676 M303.200 428.958 C 303.200 429.898,303.470 430.341,303.800 429.943 C 304.130 429.544,304.700 428.995,305.067 428.721 C 305.434 428.447,305.164 428.004,304.467 427.736 C 303.555 427.386,303.200 427.729,303.200 428.958 M304.767 430.840 C 303.918 431.862,303.961 432.303,305.007 433.350 C 306.348 434.691,308.800 434.288,308.800 432.727 C 308.800 432.036,308.516 432.040,307.671 432.741 C 306.807 433.458,306.403 433.452,305.948 432.715 C 305.535 432.048,305.697 431.960,306.476 432.430 C 307.397 432.985,307.421 432.886,306.607 431.880 C 306.061 431.205,305.851 430.416,306.140 430.126 C 306.430 429.837,306.471 429.600,306.231 429.600 C 305.992 429.600,305.333 430.158,304.767 430.840 M309.200 434.400 C 308.915 434.862,309.656 435.195,310.953 435.188 C 312.698 435.178,312.932 435.002,312.000 434.400 C 310.463 433.407,309.814 433.407,309.200 434.400 M85.760 435.360 C 85.232 435.888,84.854 437.418,84.920 438.760 L 85.040 441.200 85.391 438.800 C 85.584 437.480,86.114 435.950,86.569 435.400 C 87.624 434.124,87.026 434.094,85.760 435.360 " stroke="none" fill="#808080" fill-rule="evenodd"></path><path id="path2" d="M312.986 2.400 C 312.986 3.940,313.150 4.570,313.351 3.800 C 313.553 3.030,313.553 1.770,313.351 1.000 C 313.150 0.230,312.986 0.860,312.986 2.400 M292.741 138.770 C 292.708 138.787,292.519 139.681,292.322 140.757 L 291.962 142.715 293.981 140.818 C 296.143 138.786,295.344 137.467,292.741 138.770 M113.534 152.291 C 114.600 153.603,117.600 155.586,117.600 154.979 C 117.600 154.826,116.430 153.844,115.000 152.798 C 113.391 151.620,112.832 151.427,113.534 152.291 M82.458 309.308 C 81.546 310.467,80.811 311.817,80.824 312.308 C 80.838 312.799,81.248 312.480,81.736 311.600 C 82.225 310.720,83.169 309.370,83.836 308.600 C 84.503 307.830,84.838 307.200,84.582 307.200 C 84.326 307.200,83.370 308.149,82.458 309.308 M163.198 325.800 C 162.020 327.409,161.827 327.968,162.691 327.266 C 164.003 326.200,165.986 323.200,165.379 323.200 C 165.226 323.200,164.244 324.370,163.198 325.800 M54.437 351.561 C 52.636 353.478,52.632 353.513,54.266 353.390 C 55.182 353.321,55.770 353.103,55.573 352.906 C 55.375 352.709,55.622 352.055,56.121 351.454 C 57.766 349.473,56.312 349.565,54.437 351.561 M396.200 422.151 C 396.970 422.353,398.230 422.353,399.000 422.151 C 399.770 421.950,399.140 421.786,397.600 421.786 C 396.060 421.786,395.430 421.950,396.200 422.151 " stroke="none" fill="#bfbfbf" fill-rule="evenodd"></path><path id="path3" d="M8.000 3.539 C 8.000 7.406,10.600 11.447,13.591 12.229 C 16.043 12.871,15.594 10.629,12.800 8.277 C 10.887 6.667,10.400 5.623,10.400 3.129 C 10.400 0.881,10.062 0.000,9.200 0.000 C 8.314 0.000,8.000 0.927,8.000 3.539 M12.928 2.502 C 12.843 4.430,13.270 5.773,14.200 6.502 C 15.419 7.458,15.479 7.445,14.665 6.397 C 14.151 5.735,13.579 3.935,13.393 2.397 L 13.056 -0.400 12.928 2.502 M106.602 2.800 C 106.611 4.560,106.774 5.186,106.966 4.191 C 107.157 3.196,107.150 1.756,106.950 0.991 C 106.749 0.226,106.593 1.040,106.602 2.800 M308.000 2.341 C 308.000 3.898,307.531 4.805,306.600 5.049 C 305.658 5.295,305.854 5.441,307.200 5.496 C 311.218 5.661,312.800 4.760,312.800 2.307 C 312.800 0.277,312.512 0.000,310.400 0.000 C 308.280 0.000,308.000 0.273,308.000 2.341 M124.600 27.225 C 125.590 27.623,126.400 28.380,126.400 28.908 C 126.400 29.435,126.631 29.635,126.914 29.353 C 127.694 28.573,125.582 26.393,124.102 26.451 C 123.221 26.485,123.382 26.735,124.600 27.225 M284.978 27.645 C 284.000 28.330,283.223 29.500,283.251 30.245 C 283.288 31.246,283.487 31.138,284.013 29.833 C 284.420 28.821,285.851 27.740,287.362 27.305 C 289.053 26.817,289.418 26.518,288.378 26.472 C 287.486 26.432,285.956 26.960,284.978 27.645 M383.200 28.159 C 383.200 31.027,380.320 34.378,377.742 34.509 C 375.790 34.608,375.764 34.649,377.446 34.971 C 381.068 35.663,386.063 28.996,383.696 26.629 C 383.423 26.357,383.200 27.045,383.200 28.159 M128.000 43.555 C 128.000 46.282,128.118 46.400,130.845 46.400 C 133.573 46.400,133.642 46.330,132.519 44.727 C 129.830 40.888,128.000 40.414,128.000 43.555 M279.200 43.200 L 276.400 46.000 279.077 46.256 C 282.392 46.574,282.574 46.392,282.256 43.077 L 282.000 40.400 279.200 43.200 M36.893 50.111 C 36.744 52.861,39.242 55.129,42.800 55.476 C 44.560 55.648,45.184 55.631,44.186 55.440 C 43.189 55.248,42.559 54.789,42.788 54.420 C 43.016 54.051,42.558 53.918,41.770 54.124 C 40.182 54.539,37.977 52.470,37.375 50.000 C 37.007 48.488,36.980 48.494,36.893 50.111 M353.600 58.898 C 353.600 62.128,355.669 61.612,358.239 57.741 C 359.355 56.061,359.294 56.000,356.498 56.000 C 353.701 56.000,353.600 56.101,353.600 58.898 M352.986 68.800 C 352.986 70.340,353.150 70.970,353.351 70.200 C 353.553 69.430,353.553 68.170,353.351 67.400 C 353.150 66.630,352.986 67.260,352.986 68.800 M254.624 68.016 C 252.896 68.711,251.308 72.375,252.304 73.371 C 252.577 73.643,252.800 73.131,252.800 72.231 C 252.800 70.294,254.259 68.941,257.349 68.013 C 258.911 67.544,259.110 67.332,258.000 67.319 C 257.120 67.310,255.601 67.623,254.624 68.016 M148.817 68.600 C 148.827 68.930,149.997 69.740,151.417 70.400 C 152.862 71.071,154.529 72.734,155.200 74.173 C 157.134 78.320,158.472 78.095,157.030 73.865 C 155.721 70.023,148.729 65.540,148.817 68.600 M350.629 74.200 C 349.488 75.359,349.239 76.000,349.931 76.000 C 351.180 76.000,353.079 73.944,352.676 73.027 C 352.524 72.682,351.603 73.210,350.629 74.200 M58.146 79.665 C 59.364 83.240,60.699 84.424,64.859 85.617 C 67.933 86.498,67.160 84.779,63.773 83.200 C 62.341 82.532,60.668 80.859,60.000 79.427 C 58.081 75.312,56.722 75.486,58.146 79.665 M248.139 84.252 C 245.832 86.708,245.942 87.200,248.800 87.200 C 250.933 87.200,251.200 86.933,251.200 84.800 C 251.200 81.918,250.457 81.785,248.139 84.252 M332.986 89.600 C 332.986 91.140,333.150 91.770,333.351 91.000 C 333.553 90.230,333.553 88.970,333.351 88.200 C 333.150 87.430,332.986 88.060,332.986 89.600 M330.330 97.065 C 326.492 98.799,321.301 104.800,323.640 104.800 C 325.179 104.800,328.640 102.181,329.628 100.268 C 330.273 99.021,331.340 97.561,332.000 97.025 C 333.469 95.833,333.036 95.843,330.330 97.065 M174.384 99.428 C 175.476 99.980,176.820 101.324,177.372 102.416 C 178.296 104.240,178.377 104.265,178.388 102.724 C 178.403 100.688,176.037 98.396,173.937 98.412 C 172.653 98.422,172.727 98.589,174.384 99.428 M82.638 109.008 C 86.673 113.150,87.200 113.276,87.200 110.098 C 87.200 107.256,87.139 107.200,84.038 107.200 L 80.876 107.200 82.638 109.008 M222.857 110.057 C 222.166 110.749,221.623 111.919,221.651 112.657 C 221.688 113.653,221.882 113.553,222.400 112.268 C 222.784 111.316,223.751 110.157,224.549 109.693 C 225.347 109.228,225.576 108.838,225.057 108.824 C 224.539 108.811,223.549 109.366,222.857 110.057 M321.663 113.760 C 321.628 114.508,320.970 115.487,320.200 115.936 C 319.430 116.384,319.206 116.762,319.702 116.776 C 321.022 116.811,322.618 114.619,322.139 113.427 C 321.873 112.766,321.704 112.884,321.663 113.760 M88.051 123.343 C 87.993 124.884,90.061 127.212,91.457 127.176 C 91.976 127.162,91.747 126.772,90.949 126.307 C 90.151 125.843,89.184 124.684,88.800 123.732 C 88.282 122.447,88.088 122.347,88.051 123.343 M217.739 125.052 C 215.350 127.595,215.560 128.587,218.400 128.171 C 220.431 127.873,220.800 127.463,220.800 125.509 C 220.800 122.716,220.040 122.603,217.739 125.052 M194.000 129.379 C 196.129 129.902,197.635 131.189,198.439 133.172 C 198.990 134.533,199.107 134.570,199.149 133.400 C 199.221 131.415,196.331 128.783,194.200 128.893 C 192.569 128.977,192.550 129.023,194.000 129.379 M299.118 140.723 C 298.250 142.756,296.898 144.151,294.858 145.119 C 291.449 146.737,291.551 147.602,295.060 146.831 C 297.937 146.199,299.807 144.261,300.765 140.921 C 301.793 137.339,300.623 137.199,299.118 140.723 M108.872 150.948 C 108.683 155.519,110.181 156.987,116.000 157.938 L 118.800 158.395 115.684 157.199 C 111.555 155.615,110.533 154.680,109.669 151.699 C 109.116 149.793,108.927 149.615,108.872 150.948 M288.800 157.322 C 287.698 157.903,287.339 158.376,288.000 158.376 C 289.379 158.375,291.739 157.039,291.177 156.578 C 290.970 156.408,289.900 156.743,288.800 157.322 M131.200 180.339 C 131.200 181.975,134.896 186.134,136.791 186.629 C 139.297 187.285,138.743 185.303,135.520 182.080 C 132.446 179.006,131.200 178.504,131.200 180.339 M269.632 181.903 C 268.596 185.043,266.954 186.657,263.600 187.832 C 262.180 188.330,261.782 188.699,262.626 188.737 C 265.694 188.873,269.532 186.553,270.046 184.253 C 270.322 183.014,270.720 181.370,270.928 180.600 C 271.616 178.064,270.543 179.142,269.632 181.903 M139.251 196.102 C 139.187 197.747,141.219 199.483,142.573 198.939 C 143.209 198.683,143.057 198.502,142.174 198.463 C 141.390 198.428,140.423 197.590,140.025 196.600 C 139.535 195.382,139.285 195.221,139.251 196.102 M155.400 210.151 C 156.170 210.353,157.430 210.353,158.200 210.151 C 158.970 209.950,158.340 209.786,156.800 209.786 C 155.260 209.786,154.630 209.950,155.400 210.151 M251.200 217.902 C 251.200 220.589,251.375 220.800,253.600 220.800 C 256.890 220.800,256.515 219.023,252.600 216.063 C 251.329 215.102,251.200 215.272,251.200 217.902 M139.976 223.244 C 139.492 224.149,139.271 225.319,139.485 225.844 C 139.742 226.476,139.895 226.415,139.937 225.663 C 139.972 225.038,140.596 223.868,141.324 223.063 C 142.070 222.238,142.257 221.600,141.752 221.600 C 141.259 221.600,140.460 222.340,139.976 223.244 M135.564 237.964 C 133.955 239.573,133.570 240.390,134.306 240.635 C 135.683 241.094,138.694 238.083,138.235 236.706 C 137.990 235.970,137.173 236.355,135.564 237.964 M274.662 244.086 C 276.587 245.102,278.142 246.702,278.850 248.396 C 280.573 252.519,281.681 252.521,280.276 248.400 C 279.018 244.708,276.167 242.359,273.040 242.435 C 272.153 242.457,272.775 243.091,274.662 244.086 M110.124 263.863 C 109.396 264.668,108.824 265.838,108.854 266.463 C 108.885 267.103,109.281 266.827,109.763 265.830 C 110.233 264.857,111.558 263.716,112.709 263.294 C 114.517 262.630,114.573 262.518,113.124 262.463 C 112.202 262.428,110.852 263.058,110.124 263.863 M298.651 273.693 C 299.449 274.157,300.416 275.316,300.800 276.268 C 301.318 277.553,301.512 277.653,301.549 276.657 C 301.607 275.116,299.539 272.788,298.143 272.824 C 297.624 272.838,297.853 273.228,298.651 273.693 M202.029 283.400 C 202.944 286.464,204.796 288.838,206.894 289.636 C 210.999 291.196,211.913 289.860,207.943 288.103 C 206.550 287.487,204.927 285.842,204.195 284.308 C 202.747 281.271,201.201 280.623,202.029 283.400 M188.986 294.400 C 188.986 295.940,189.150 296.570,189.351 295.800 C 189.553 295.030,189.553 293.770,189.351 293.000 C 189.150 292.230,188.986 292.860,188.986 294.400 M188.000 299.092 C 188.000 299.620,187.190 300.377,186.200 300.775 C 184.982 301.265,184.821 301.515,185.702 301.549 C 187.182 301.607,189.294 299.427,188.514 298.647 C 188.231 298.365,188.000 298.565,188.000 299.092 M81.972 303.961 C 79.565 304.937,78.599 306.430,78.063 310.000 L 77.583 313.200 78.812 310.019 C 80.339 306.069,80.670 305.740,84.500 304.375 C 86.959 303.499,87.186 303.273,85.600 303.286 C 84.500 303.294,82.868 303.598,81.972 303.961 M226.025 312.759 C 225.819 313.094,226.578 314.230,227.712 315.284 C 228.847 316.338,230.073 317.920,230.437 318.800 C 230.969 320.086,231.106 319.851,231.137 317.600 C 231.189 313.832,227.513 310.351,226.025 312.759 M323.231 315.000 C 323.248 315.330,324.416 316.326,325.827 317.214 C 327.237 318.101,328.905 319.898,329.532 321.206 C 330.995 324.259,331.711 322.365,330.342 319.061 C 329.256 316.437,323.125 312.936,323.231 315.000 M166.400 327.417 C 165.611 329.115,164.240 330.351,162.400 331.025 L 159.600 332.051 162.797 331.644 C 166.271 331.201,168.000 329.541,168.000 326.647 C 168.000 324.247,167.837 324.325,166.400 327.417 M231.269 327.453 C 231.176 329.419,232.634 332.003,233.828 331.988 C 234.542 331.979,234.525 331.801,233.766 331.320 C 233.197 330.959,232.418 329.614,232.035 328.332 C 231.627 326.967,231.309 326.602,231.269 327.453 M332.986 330.400 C 332.986 331.940,333.150 332.570,333.351 331.800 C 333.553 331.030,333.553 329.770,333.351 329.000 C 333.150 328.230,332.986 328.860,332.986 330.400 M58.057 334.857 C 57.366 335.549,56.823 336.719,56.851 337.457 C 56.887 338.409,57.114 338.270,57.632 336.981 C 58.034 335.981,59.181 334.834,60.181 334.432 C 61.470 333.914,61.609 333.687,60.657 333.651 C 59.919 333.623,58.749 334.166,58.057 334.857 M346.400 344.997 C 349.252 345.792,350.290 346.581,351.399 348.800 C 352.489 350.983,352.798 351.223,352.799 349.889 C 352.801 346.994,350.322 344.873,346.400 344.415 L 342.800 343.994 346.400 344.997 M52.372 345.561 C 50.139 346.467,49.123 347.839,47.761 351.793 C 46.373 355.820,47.398 355.517,49.572 351.256 C 50.528 349.382,52.207 347.704,53.960 346.873 C 58.035 344.939,56.676 343.817,52.372 345.561 M139.724 355.063 C 138.317 356.618,137.963 358.400,139.061 358.400 C 139.838 358.400,143.200 354.947,143.200 354.148 C 143.200 353.059,141.018 353.633,139.724 355.063 M252.109 357.036 C 252.040 358.450,252.722 359.995,253.964 361.236 C 255.205 362.478,256.750 363.160,258.164 363.091 C 260.068 362.998,260.131 362.930,258.588 362.634 C 257.592 362.442,256.980 361.955,257.230 361.552 C 257.479 361.148,257.182 361.011,256.570 361.246 C 255.157 361.788,253.268 359.584,254.055 358.311 C 254.416 357.728,254.308 357.562,253.781 357.888 C 253.281 358.197,252.767 357.657,252.566 356.612 C 252.270 355.069,252.202 355.132,252.109 357.036 M136.565 370.660 C 136.274 371.418,135.217 372.367,134.218 372.769 C 133.101 373.217,132.881 373.518,133.647 373.549 C 135.483 373.624,137.876 371.628,137.457 370.371 C 137.185 369.555,136.961 369.628,136.565 370.660 M27.163 376.869 C 26.672 377.786,26.480 378.746,26.735 379.002 C 26.991 379.257,27.200 379.072,27.200 378.590 C 27.200 378.109,27.766 377.149,28.457 376.457 C 29.149 375.766,29.341 375.200,28.885 375.200 C 28.429 375.200,27.654 375.951,27.163 376.869 M272.800 384.160 C 273.240 384.688,273.600 385.868,273.600 386.782 C 273.600 389.425,275.805 391.871,278.979 392.747 C 282.942 393.842,283.145 393.294,279.446 391.488 C 277.620 390.596,275.857 388.912,275.044 387.284 C 274.299 385.791,273.309 384.261,272.844 383.884 C 272.266 383.416,272.252 383.503,272.800 384.160 M21.905 388.728 C 19.584 390.142,16.826 395.200,18.375 395.200 C 19.462 395.200,25.600 389.214,25.600 388.153 C 25.600 386.835,24.805 386.959,21.905 388.728 M374.400 388.222 C 374.400 388.784,375.507 390.215,376.860 391.402 C 378.212 392.589,379.147 393.839,378.936 394.180 C 378.726 394.521,379.386 394.850,380.404 394.911 C 382.120 395.014,382.194 394.847,381.423 392.636 C 380.299 389.413,374.400 385.705,374.400 388.222 M116.000 398.036 C 116.000 399.962,112.290 403.200,110.084 403.200 C 108.990 403.200,107.896 403.521,107.653 403.914 C 106.745 405.383,114.049 403.097,115.400 401.489 C 116.679 399.966,117.355 396.800,116.400 396.800 C 116.180 396.800,116.000 397.356,116.000 398.036 M298.512 416.682 C 299.872 418.860,302.400 420.322,302.400 418.931 C 302.400 417.642,299.867 415.200,298.530 415.200 C 297.812 415.200,297.807 415.554,298.512 416.682 M395.103 416.223 C 395.489 416.609,396.839 416.796,398.103 416.639 C 400.217 416.375,400.162 416.319,397.401 415.937 C 395.681 415.699,394.701 415.821,395.103 416.223 M93.660 425.376 C 92.063 426.007,87.200 430.973,87.200 431.973 C 87.200 434.469,93.098 430.863,94.061 427.779 C 94.366 426.801,95.017 425.736,95.508 425.412 C 96.536 424.735,95.343 424.712,93.660 425.376 M303.251 431.343 C 303.185 433.072,305.328 435.215,307.057 435.149 C 308.009 435.113,307.870 434.886,306.581 434.368 C 305.581 433.966,304.434 432.819,304.032 431.819 C 303.514 430.530,303.287 430.391,303.251 431.343 M86.602 438.000 C 86.611 439.760,86.774 440.386,86.966 439.391 C 87.157 438.396,87.150 436.956,86.950 436.191 C 86.749 435.426,86.593 436.240,86.602 438.000 " stroke="none" fill="#ffffff" fill-rule="evenodd"></path><path id="path4" d="M13.600 2.640 C 13.600 4.092,13.979 5.659,14.443 6.123 C 15.210 6.890,16.131 11.988,16.113 15.363 C 16.108 16.112,16.849 16.962,17.758 17.250 C 19.057 17.662,19.174 17.921,18.306 18.458 C 17.014 19.256,16.738 22.915,17.965 22.971 C 18.424 22.992,19.430 23.271,20.200 23.590 C 21.065 23.949,21.600 23.815,21.600 23.238 C 21.600 22.725,21.966 22.532,22.413 22.808 C 22.860 23.084,23.019 23.646,22.766 24.055 C 22.513 24.465,22.905 24.800,23.638 24.800 C 24.514 24.800,24.808 24.374,24.495 23.558 C 24.233 22.876,24.339 22.515,24.730 22.757 C 25.122 22.999,25.698 25.448,26.010 28.199 C 26.584 33.251,27.449 35.210,29.098 35.188 C 29.594 35.181,29.460 34.827,28.800 34.400 C 28.079 33.934,27.980 33.620,28.553 33.612 C 29.077 33.606,29.679 33.881,29.892 34.225 C 30.104 34.569,31.457 34.940,32.897 35.050 C 36.199 35.302,36.030 35.061,36.273 39.859 C 36.386 42.096,37.034 44.565,37.717 45.359 C 38.399 46.152,39.218 47.340,39.538 48.000 C 39.857 48.660,39.552 48.501,38.859 47.647 C 37.291 45.713,37.261 46.440,38.761 50.031 C 39.445 51.666,40.783 53.137,42.013 53.605 C 44.819 54.672,45.811 54.606,45.130 53.400 C 44.679 52.601,44.781 52.600,45.641 53.399 C 46.233 53.948,46.681 55.658,46.638 57.199 C 46.594 58.739,46.862 60.000,47.233 60.000 C 47.604 60.000,47.757 60.783,47.573 61.741 C 47.117 64.108,48.594 65.669,50.896 65.251 C 51.943 65.061,52.800 65.281,52.800 65.740 C 52.800 66.230,53.625 66.366,54.800 66.071 C 56.839 65.560,57.409 67.516,56.834 73.048 C 56.664 74.677,58.265 76.978,59.176 76.415 C 59.503 76.213,60.939 77.501,62.367 79.278 C 63.794 81.055,65.426 82.331,65.993 82.113 C 66.628 81.870,67.053 82.386,67.101 83.459 C 67.340 88.799,67.719 90.532,68.800 91.216 C 69.597 91.720,69.664 91.980,69.000 91.988 C 68.450 91.994,68.000 92.334,68.000 92.743 C 68.000 94.067,70.575 96.104,71.703 95.671 C 72.306 95.440,72.800 95.599,72.800 96.025 C 72.800 96.451,73.361 96.800,74.047 96.800 C 74.750 96.800,75.057 96.416,74.751 95.920 C 74.362 95.292,74.646 95.275,75.744 95.863 C 76.781 96.418,77.342 97.679,77.471 99.743 C 77.893 106.502,78.190 106.902,82.912 107.081 C 87.453 107.253,86.999 106.832,87.365 111.207 C 87.531 113.190,87.943 115.260,88.280 115.807 C 88.618 116.353,88.672 117.160,88.400 117.600 C 88.126 118.043,88.709 118.400,89.706 118.400 C 91.397 118.400,91.418 118.464,90.055 119.461 C 88.209 120.811,88.961 123.544,91.665 125.316 C 93.229 126.341,93.841 126.396,94.804 125.597 C 95.896 124.690,96.342 125.036,96.095 126.600 C 96.043 126.930,96.569 127.200,97.264 127.200 C 98.228 127.200,98.412 127.725,98.041 129.416 C 97.734 130.813,97.996 132.216,98.752 133.216 C 100.221 135.160,100.346 136.302,99.000 135.494 C 98.321 135.085,98.352 135.327,99.098 136.246 C 99.702 136.991,100.602 137.594,101.098 137.588 C 101.594 137.581,101.460 137.227,100.800 136.800 C 99.257 135.803,100.386 135.764,102.211 136.752 C 102.975 137.165,104.590 137.712,105.800 137.967 C 108.025 138.436,108.270 139.169,108.202 145.149 C 108.183 146.802,109.915 149.018,110.651 148.283 C 110.893 148.040,110.897 148.586,110.659 149.496 C 110.145 151.461,114.251 156.002,116.538 155.997 C 117.590 155.995,117.295 155.564,115.487 154.462 C 112.942 152.910,111.368 151.176,112.553 151.229 C 113.824 151.285,117.896 155.118,118.202 156.546 C 118.373 157.346,118.524 159.171,118.536 160.602 C 118.548 162.033,118.867 163.394,119.244 163.627 C 119.621 163.860,119.749 164.522,119.529 165.097 C 119.308 165.673,119.742 166.651,120.494 167.272 C 121.600 168.185,121.927 168.200,122.213 167.351 C 122.486 166.540,122.903 166.607,124.053 167.648 C 124.871 168.388,126.107 168.776,126.800 168.511 C 128.300 167.935,128.682 168.814,129.010 173.600 C 129.340 178.391,129.948 179.168,133.272 179.043 C 136.871 178.908,138.347 180.433,138.625 184.572 C 138.749 186.435,139.536 188.690,140.423 189.728 C 141.623 191.131,141.665 191.313,140.600 190.488 C 139.406 189.563,139.200 189.582,139.200 190.616 C 139.200 191.283,139.820 192.067,140.578 192.357 C 141.660 192.773,141.728 193.026,140.895 193.541 C 139.649 194.311,140.978 197.515,142.628 197.722 C 147.187 198.293,149.767 199.813,149.202 201.593 C 148.924 202.469,148.984 203.639,149.336 204.193 C 149.688 204.747,149.989 205.920,150.006 206.800 C 150.026 207.901,150.492 208.321,151.498 208.146 C 152.303 208.007,152.767 208.206,152.530 208.589 C 152.294 208.972,152.888 209.305,153.850 209.329 C 158.171 209.438,159.200 209.656,159.200 210.464 C 159.200 210.996,158.329 211.136,156.927 210.828 C 155.370 210.486,154.332 210.718,153.630 211.564 C 153.066 212.244,152.198 212.794,151.702 212.788 C 151.206 212.781,151.340 212.427,152.000 212.000 C 152.660 211.573,152.794 211.219,152.298 211.212 C 151.165 211.197,149.849 212.824,149.720 214.400 C 149.132 221.630,149.005 222.004,147.228 221.739 C 145.634 221.502,145.565 221.643,146.456 223.339 C 147.430 225.194,147.427 225.195,145.716 223.676 C 142.954 221.224,138.444 226.361,140.832 229.238 C 141.616 230.183,141.516 230.402,140.298 230.412 C 139.038 230.423,138.991 230.548,140.000 231.200 C 140.872 231.764,140.914 231.979,140.153 231.988 C 139.577 231.994,139.328 232.360,139.600 232.800 C 139.872 233.240,139.771 233.600,139.376 233.600 C 138.981 233.600,138.721 234.680,138.800 236.000 C 138.879 237.320,138.628 238.400,138.243 238.400 C 137.858 238.400,137.944 239.147,138.432 240.061 C 139.256 241.599,139.192 241.652,137.564 240.781 C 136.200 240.051,135.940 240.056,136.404 240.806 C 136.827 241.491,136.525 241.621,135.368 241.253 C 134.469 240.968,133.499 241.115,133.212 241.581 C 132.925 242.046,132.352 242.217,131.939 241.962 C 131.526 241.707,130.974 242.059,130.711 242.745 C 130.448 243.430,129.976 243.833,129.663 243.639 C 129.350 243.446,129.014 244.978,128.916 247.044 C 128.715 251.275,127.396 252.768,124.173 252.415 C 122.935 252.279,121.592 252.729,120.963 253.490 C 120.368 254.211,120.144 254.294,120.464 253.676 C 120.861 252.912,120.734 252.746,120.069 253.157 C 119.531 253.490,119.280 254.254,119.511 254.855 C 119.741 255.457,119.601 256.152,119.199 256.400 C 118.797 256.649,118.469 257.830,118.469 259.026 C 118.471 263.128,118.194 263.598,115.716 263.693 C 112.663 263.810,109.307 267.443,109.812 270.085 C 110.005 271.094,109.739 272.082,109.221 272.281 C 108.681 272.488,108.200 274.629,108.092 277.303 C 107.867 282.858,108.331 282.270,103.976 282.517 C 100.316 282.724,97.907 284.155,98.796 285.594 C 99.070 286.037,98.985 286.400,98.606 286.400 C 98.227 286.400,97.880 287.708,97.835 289.306 C 97.749 292.320,96.530 293.753,94.662 293.036 C 94.067 292.808,93.101 293.018,92.516 293.504 C 91.931 293.989,91.267 294.201,91.040 293.974 C 90.814 293.747,90.166 294.118,89.601 294.799 C 88.726 295.853,88.798 295.971,90.087 295.594 C 91.282 295.244,91.246 295.339,89.918 296.045 C 88.894 296.589,88.208 297.772,88.164 299.069 C 88.016 303.467,87.658 304.142,84.677 305.663 C 80.269 307.911,77.815 312.868,77.383 320.391 C 77.208 323.449,77.083 323.587,74.400 323.681 C 69.274 323.861,68.862 323.990,67.948 325.697 C 67.236 327.028,67.256 327.260,68.044 326.773 C 68.748 326.338,68.847 326.477,68.375 327.240 C 68.006 327.838,67.655 329.352,67.597 330.603 C 67.485 332.987,64.160 335.518,62.152 334.748 C 60.523 334.123,58.179 336.384,57.869 338.878 C 56.859 347.029,56.590 347.959,55.109 348.429 C 54.268 348.696,52.723 350.175,51.676 351.716 C 50.629 353.257,49.554 354.491,49.286 354.459 C 47.685 354.266,47.164 354.495,47.600 355.200 C 47.872 355.640,47.697 356.000,47.212 356.000 C 46.727 356.000,46.388 356.450,46.460 357.000 C 46.990 361.083,46.318 364.000,44.847 364.000 C 43.993 364.000,43.087 364.335,42.834 364.745 C 42.581 365.154,41.523 365.335,40.483 365.147 C 38.197 364.732,36.451 366.577,37.031 368.796 C 37.261 369.678,37.079 370.400,36.625 370.400 C 36.135 370.400,35.995 371.374,36.280 372.800 C 36.709 374.943,36.551 375.200,34.805 375.200 C 33.277 375.200,32.965 375.505,33.375 376.600 C 33.819 377.785,33.708 377.844,32.651 376.986 C 31.239 375.839,29.136 376.371,28.497 378.036 C 28.262 378.648,28.470 379.396,28.959 379.698 C 29.534 380.054,29.619 379.878,29.200 379.200 C 28.744 378.463,28.863 378.344,29.600 378.800 C 30.337 379.256,30.456 379.137,30.000 378.400 C 29.544 377.663,29.663 377.544,30.400 378.000 C 31.093 378.428,31.254 378.335,30.876 377.724 C 30.562 377.216,30.648 376.800,31.067 376.800 C 31.486 376.800,32.066 377.419,32.357 378.176 C 32.647 378.932,32.629 379.295,32.316 378.983 C 31.523 378.190,29.507 380.003,30.105 380.970 C 30.374 381.405,29.830 381.351,28.897 380.852 C 26.832 379.747,26.553 381.144,28.600 382.336 C 29.850 383.064,29.808 383.154,28.200 383.176 C 27.050 383.191,26.380 383.705,26.345 384.600 C 26.315 385.370,26.110 387.620,25.890 389.600 C 25.669 391.580,25.453 393.560,25.410 394.000 C 25.368 394.440,23.997 394.853,22.365 394.919 C 17.136 395.128,16.000 396.254,16.000 401.228 C 16.000 404.140,15.666 405.633,15.000 405.698 C 14.450 405.751,12.920 405.818,11.600 405.847 C 10.280 405.875,8.723 406.461,8.141 407.149 C 7.277 408.169,7.188 408.178,7.658 407.200 C 8.106 406.268,8.010 406.207,7.229 406.928 C 6.676 407.439,6.065 409.599,5.870 411.728 C 5.676 413.858,5.476 416.050,5.425 416.600 C 5.372 417.182,4.218 417.600,2.667 417.600 C -1.137 417.600,-1.195 420.550,2.600 421.021 L 5.200 421.344 2.600 421.472 L 0.000 421.600 0.000 431.200 L 0.000 440.800 42.400 440.800 L 84.800 440.800 84.800 438.560 C 84.800 437.328,85.192 435.928,85.670 435.450 C 86.149 434.971,86.717 432.829,86.934 430.690 C 87.401 426.071,87.901 425.436,91.367 425.065 C 92.815 424.910,94.434 424.727,94.965 424.658 C 95.495 424.589,95.744 424.233,95.518 423.867 C 95.291 423.500,95.410 423.200,95.783 423.200 C 96.155 423.200,96.538 422.030,96.634 420.600 C 96.922 416.320,97.685 413.558,98.449 414.030 C 98.844 414.274,99.938 414.061,100.880 413.557 C 102.071 412.920,102.428 412.908,102.049 413.520 C 101.750 414.004,101.887 414.400,102.353 414.400 C 102.819 414.400,103.228 413.770,103.263 413.000 C 103.303 412.110,103.477 411.976,103.741 412.633 C 104.050 413.404,104.429 413.440,105.230 412.775 C 105.821 412.284,106.108 411.369,105.867 410.742 C 105.626 410.114,105.802 409.600,106.258 409.600 C 106.713 409.600,107.088 408.430,107.091 407.000 C 107.100 402.405,107.430 401.461,109.333 400.594 C 110.360 400.126,111.200 399.420,111.200 399.024 C 111.200 398.629,110.840 398.528,110.400 398.800 C 109.098 399.605,109.488 398.687,110.954 397.498 C 111.873 396.752,112.115 396.721,111.706 397.400 C 111.376 397.950,111.448 398.400,111.867 398.400 C 112.286 398.400,112.847 397.831,113.114 397.135 C 113.817 395.303,113.722 395.035,112.600 395.681 C 112.050 395.998,111.880 395.948,112.223 395.572 C 112.566 395.195,113.368 394.810,114.006 394.717 C 115.997 394.425,113.092 399.045,110.161 400.832 C 108.753 401.691,108.150 402.395,108.822 402.397 C 112.624 402.406,116.721 395.874,117.349 388.800 C 117.812 383.586,117.748 383.674,121.118 383.632 C 123.913 383.597,128.308 379.567,127.877 377.434 C 127.275 374.451,128.850 371.839,130.936 372.363 C 132.682 372.801,132.918 372.662,132.459 371.465 C 132.160 370.686,132.171 370.305,132.484 370.617 C 133.298 371.432,135.284 369.584,134.668 368.586 C 134.359 368.086,134.543 367.994,135.129 368.356 C 135.860 368.808,135.752 369.348,134.697 370.514 C 133.491 371.846,133.475 371.998,134.583 371.573 C 136.347 370.896,137.022 368.832,135.916 367.499 C 135.207 366.644,135.292 366.400,136.302 366.400 C 137.016 366.400,137.600 365.871,137.600 365.225 C 137.600 364.449,137.125 364.220,136.200 364.550 C 135.073 364.952,135.125 364.752,136.466 363.525 C 137.460 362.615,138.156 360.951,138.193 359.400 C 138.227 357.970,138.290 356.170,138.334 355.400 C 138.377 354.630,139.310 353.584,140.407 353.075 C 141.504 352.566,142.214 352.454,141.984 352.826 C 141.754 353.199,142.293 353.448,143.183 353.381 C 144.072 353.314,144.800 352.960,144.800 352.595 C 144.800 352.229,145.389 352.036,146.109 352.165 C 147.505 352.416,147.935 351.205,148.226 346.205 C 148.329 344.437,148.810 343.207,149.400 343.205 C 149.950 343.202,150.400 342.866,150.400 342.458 C 150.400 342.050,151.492 341.855,152.826 342.024 C 154.479 342.233,155.074 342.043,154.695 341.429 C 154.327 340.834,154.603 340.707,155.510 341.055 C 156.265 341.345,156.682 341.257,156.437 340.859 C 156.191 340.462,156.442 339.954,156.995 339.731 C 157.554 339.506,157.290 339.273,156.400 339.207 C 154.800 339.088,154.800 339.088,156.400 338.463 C 157.463 338.048,158.021 337.060,158.063 335.519 C 158.165 331.781,158.664 330.884,161.125 330.018 C 163.798 329.078,166.229 326.102,166.697 323.200 C 166.874 322.100,167.330 321.260,167.709 321.333 C 168.089 321.407,168.504 319.611,168.631 317.342 C 168.905 312.455,169.398 311.827,173.064 311.698 C 174.593 311.644,175.663 311.306,175.442 310.946 C 175.221 310.587,175.697 310.407,176.502 310.546 C 177.306 310.686,177.972 310.380,177.982 309.867 C 177.992 309.353,178.270 308.663,178.600 308.333 C 179.459 307.475,179.344 305.417,178.467 305.958 C 178.064 306.207,178.143 305.329,178.643 304.006 C 179.142 302.683,180.012 301.600,180.575 301.600 C 181.139 301.600,181.510 301.330,181.400 301.000 C 181.223 300.468,182.074 299.832,182.600 300.103 C 183.169 300.397,187.090 300.423,186.798 300.132 C 186.610 299.944,186.829 299.094,187.284 298.244 C 187.875 297.138,187.835 296.365,187.142 295.531 C 186.349 294.575,186.412 294.455,187.487 294.867 C 188.464 295.242,188.824 294.888,188.893 293.486 C 189.519 280.863,189.379 281.254,193.225 281.363 C 194.751 281.406,196.000 281.096,196.000 280.674 C 196.000 280.251,196.270 280.069,196.600 280.269 C 197.507 280.818,198.767 279.048,199.069 276.800 C 199.427 274.138,200.378 273.226,200.486 275.440 C 200.687 279.540,201.380 281.200,202.880 281.173 C 203.716 281.159,204.978 281.989,205.685 283.018 C 206.392 284.046,207.742 285.429,208.685 286.089 C 209.778 286.855,210.400 288.145,210.400 289.645 C 210.400 290.940,210.694 292.000,211.054 292.000 C 211.414 292.000,211.609 293.260,211.488 294.800 C 211.356 296.471,211.630 297.600,212.167 297.600 C 212.662 297.600,212.830 297.837,212.540 298.126 C 211.643 299.024,213.645 300.732,214.990 300.216 C 215.834 299.893,216.068 300.043,215.684 300.664 C 215.333 301.231,215.615 301.600,216.400 301.600 C 217.112 301.600,217.493 301.274,217.246 300.875 C 217.000 300.476,217.696 300.566,218.793 301.075 C 220.722 301.970,221.303 303.921,220.928 308.246 C 220.855 309.086,221.160 309.472,221.655 309.166 C 222.159 308.855,222.403 309.207,222.254 310.029 C 221.992 311.464,222.718 311.752,228.000 312.312 L 230.800 312.609 231.270 317.977 C 231.560 321.295,232.171 323.618,232.870 324.060 C 233.668 324.565,233.706 324.779,233.000 324.788 C 232.450 324.794,232.000 325.379,232.000 326.086 C 232.000 326.973,232.426 327.208,233.376 326.843 C 234.132 326.553,234.491 326.575,234.174 326.893 C 233.856 327.210,234.227 328.219,234.998 329.135 C 236.399 330.799,236.399 330.799,234.600 329.276 C 233.610 328.438,232.800 328.124,232.800 328.578 C 232.800 329.772,234.481 330.989,237.004 331.622 C 238.570 332.015,239.200 331.870,239.200 331.115 C 239.200 328.172,241.648 332.900,241.814 336.162 C 241.916 338.185,242.294 339.660,242.654 339.440 C 243.013 339.220,243.193 339.706,243.054 340.520 C 242.866 341.617,243.266 341.975,244.600 341.904 C 245.590 341.852,246.400 342.128,246.400 342.519 C 246.400 342.911,247.270 343.012,248.334 342.745 C 250.565 342.185,252.411 344.643,251.624 347.125 C 251.131 348.678,251.956 351.121,254.080 354.400 C 255.316 356.308,255.312 356.327,254.005 354.800 C 252.657 353.227,252.644 353.233,253.201 355.200 C 254.236 358.859,255.961 360.724,259.209 361.697 C 261.713 362.447,262.327 362.971,261.980 364.063 C 261.735 364.834,261.878 365.677,262.297 365.936 C 262.716 366.195,262.946 367.395,262.810 368.603 C 262.505 371.291,263.903 373.436,264.917 371.838 C 265.407 371.066,265.579 371.159,265.588 372.200 C 265.594 372.970,265.981 373.600,266.447 373.600 C 266.913 373.600,267.108 373.298,266.880 372.930 C 266.652 372.561,267.711 372.649,269.233 373.125 C 271.903 373.961,272.803 376.246,272.061 380.300 C 271.991 380.685,272.489 381.614,273.168 382.365 C 273.848 383.116,274.144 383.990,273.826 384.307 C 273.509 384.625,273.778 384.698,274.424 384.470 C 275.146 384.215,276.218 385.022,277.200 386.559 C 278.080 387.936,279.520 389.453,280.400 389.931 C 281.280 390.409,282.163 390.903,282.362 391.028 C 282.560 391.154,282.637 392.533,282.532 394.094 C 282.396 396.119,282.614 396.762,283.294 396.342 C 283.908 395.963,284.036 396.094,283.655 396.711 C 283.329 397.239,283.497 398.194,284.029 398.835 C 284.816 399.783,284.717 400.009,283.498 400.051 C 282.232 400.094,282.279 400.214,283.800 400.825 C 284.790 401.223,285.600 401.761,285.600 402.021 C 285.600 402.282,285.184 402.238,284.676 401.924 C 284.117 401.578,283.969 401.703,284.302 402.241 C 284.604 402.730,285.439 402.905,286.157 402.629 C 287.030 402.294,287.271 402.438,286.884 403.064 C 286.566 403.579,286.687 404.000,287.153 404.000 C 287.619 404.000,288.000 403.596,288.000 403.102 C 288.000 402.470,288.345 402.490,289.165 403.171 C 289.806 403.703,290.695 403.912,291.142 403.636 C 292.061 403.068,292.972 406.054,293.108 410.085 C 293.177 412.119,293.557 412.798,294.625 412.799 C 295.409 412.799,296.262 413.351,296.520 414.024 C 296.816 414.796,297.545 415.071,298.495 414.770 C 299.393 414.485,300.000 414.676,300.000 415.244 C 300.000 415.973,300.265 415.976,301.129 415.259 C 301.995 414.540,302.400 414.553,302.870 415.314 C 303.214 415.870,303.067 416.444,302.537 416.621 C 302.016 416.795,301.854 417.356,302.176 417.868 C 302.498 418.381,302.880 420.060,303.024 421.600 C 303.168 423.140,303.357 425.044,303.443 425.830 C 303.529 426.617,304.140 427.601,304.800 428.018 C 305.596 428.521,305.664 428.780,305.000 428.788 C 303.530 428.806,303.783 430.755,305.451 432.265 C 306.608 433.312,307.113 433.378,307.941 432.589 C 308.785 431.785,308.866 431.974,308.375 433.594 C 307.835 435.372,307.910 435.471,309.074 434.504 C 311.245 432.703,312.800 433.984,312.800 437.575 L 312.800 440.800 356.400 440.800 L 400.000 440.800 400.000 431.651 L 400.000 422.501 397.400 422.179 L 394.800 421.856 397.400 421.728 C 399.067 421.646,400.000 421.188,400.000 420.451 C 400.000 419.739,399.010 419.206,397.400 419.051 C 395.970 418.913,394.794 418.440,394.788 418.000 C 394.781 417.560,394.484 416.741,394.128 416.180 C 393.773 415.620,393.717 414.090,394.004 412.780 C 394.355 411.184,394.215 410.400,393.578 410.400 C 393.056 410.400,392.826 409.886,393.067 409.258 C 393.308 408.631,392.896 407.641,392.152 407.058 C 390.937 406.107,390.911 406.142,391.898 407.400 C 392.706 408.431,392.739 408.800,392.023 408.800 C 391.488 408.800,390.871 408.117,390.653 407.281 C 390.356 406.146,389.574 405.782,387.552 405.839 C 384.119 405.936,384.132 405.953,383.907 401.021 C 383.803 398.744,383.421 397.063,383.059 397.287 C 382.696 397.511,382.400 397.156,382.400 396.497 C 382.400 395.313,381.930 395.181,377.155 395.031 C 375.022 394.964,374.682 394.639,374.490 392.477 C 374.369 391.115,374.149 389.100,374.001 388.000 C 373.854 386.900,373.703 385.010,373.667 383.800 C 373.622 382.331,373.169 381.600,372.302 381.600 C 371.232 381.600,371.181 381.387,372.012 380.385 C 372.835 379.394,372.778 378.902,371.709 377.720 C 370.987 376.923,370.667 375.981,370.998 375.627 C 371.329 375.273,370.814 375.392,369.853 375.892 C 367.697 377.012,366.952 377.048,367.600 376.000 C 367.872 375.560,367.713 375.200,367.247 375.200 C 366.781 375.200,366.400 375.766,366.400 376.457 C 366.400 379.768,363.698 374.824,363.536 371.216 C 363.339 366.829,361.172 363.496,359.447 364.927 C 358.679 365.564,358.400 365.530,358.400 364.798 C 358.400 364.116,357.641 363.952,356.000 364.280 C 353.714 364.737,353.595 364.628,353.500 361.980 C 353.365 358.213,353.293 357.826,352.600 357.133 C 352.270 356.803,352.006 356.143,352.012 355.667 C 352.019 355.190,352.373 355.340,352.800 356.000 C 353.389 356.911,353.578 356.941,353.588 356.125 C 353.594 355.534,352.880 354.862,352.000 354.632 C 351.120 354.402,350.406 353.625,350.412 352.907 C 350.423 351.771,350.526 351.757,351.200 352.800 C 351.627 353.460,351.981 353.603,351.988 353.118 C 352.016 351.112,348.224 346.758,345.831 346.048 C 343.178 345.261,341.960 342.879,342.924 340.365 C 343.252 339.511,342.953 338.725,342.124 338.261 C 341.396 337.854,340.800 337.157,340.800 336.713 C 340.800 336.269,341.100 336.091,341.467 336.318 C 341.833 336.544,342.133 336.265,342.133 335.698 C 342.133 335.131,341.669 334.667,341.102 334.667 C 340.535 334.667,340.256 334.967,340.482 335.333 C 340.709 335.700,340.552 336.000,340.133 336.000 C 339.714 336.000,339.173 335.484,338.931 334.852 C 338.671 334.176,337.482 333.733,336.034 333.774 C 332.891 333.864,332.901 333.878,332.630 329.030 C 332.503 326.777,332.040 324.993,331.600 325.067 C 331.160 325.140,330.879 324.783,330.976 324.273 C 331.078 323.732,330.339 323.435,329.198 323.561 C 328.124 323.679,327.452 323.439,327.706 323.028 C 328.259 322.133,324.923 318.400,323.570 318.400 C 323.047 318.400,322.688 317.590,322.773 316.600 C 322.858 315.610,322.411 313.946,321.781 312.902 C 321.150 311.857,321.031 311.249,321.517 311.549 C 322.020 311.859,322.400 311.546,322.400 310.822 C 322.400 310.122,321.830 309.331,321.133 309.064 C 320.115 308.673,320.075 308.447,320.933 307.915 C 321.770 307.395,321.607 306.860,320.174 305.426 C 318.612 303.865,318.237 303.774,317.586 304.800 C 316.937 305.823,316.823 305.794,316.812 304.600 C 316.806 303.830,316.239 303.200,315.553 303.200 C 314.867 303.200,314.526 303.556,314.794 303.991 C 315.075 304.444,314.753 304.578,314.042 304.305 C 312.771 303.818,312.508 303.059,312.758 300.600 C 312.836 299.830,312.562 299.200,312.148 299.200 C 311.734 299.200,311.487 298.127,311.599 296.816 C 311.853 293.821,310.911 293.106,306.424 292.888 C 302.072 292.677,302.462 293.109,302.210 288.223 C 302.094 285.988,301.691 284.349,301.314 284.580 C 300.937 284.811,300.871 284.238,301.167 283.305 C 301.611 281.906,301.451 281.705,300.252 282.155 C 298.975 282.634,298.933 282.537,299.897 281.351 C 301.879 278.914,296.736 271.797,294.563 273.970 C 294.327 274.207,294.521 274.400,294.996 274.400 C 295.946 274.400,295.875 276.392,294.890 277.377 C 294.547 277.720,294.339 277.640,294.428 277.200 C 294.846 275.128,294.334 274.254,293.000 274.762 C 291.917 275.174,291.815 275.078,292.549 274.339 C 293.280 273.601,293.222 273.107,292.291 272.176 C 291.575 271.461,291.267 270.240,291.534 269.177 C 291.807 268.090,291.514 266.993,290.792 266.394 C 289.349 265.196,289.195 263.669,290.600 264.490 C 291.150 264.812,290.925 264.305,290.099 263.363 C 288.928 262.027,288.269 261.828,287.099 262.454 C 286.040 263.021,285.600 262.988,285.600 262.341 C 285.600 261.765,284.860 261.612,283.600 261.929 C 281.588 262.433,281.127 260.741,281.385 253.800 C 281.406 253.250,280.927 252.800,280.321 252.800 C 279.716 252.800,278.320 251.374,277.219 249.630 C 276.119 247.887,274.404 245.997,273.409 245.430 C 271.557 244.375,271.015 242.871,271.092 239.000 C 271.116 237.790,270.752 236.800,270.282 236.800 C 269.813 236.800,269.643 236.241,269.905 235.558 C 270.217 234.747,270.060 234.515,269.455 234.890 C 268.821 235.281,268.703 235.005,269.082 234.018 C 269.572 232.741,269.478 232.703,268.269 233.687 C 267.060 234.670,266.963 234.632,267.441 233.358 C 267.744 232.552,267.658 232.117,267.246 232.371 C 266.842 232.622,266.271 232.439,265.979 231.966 C 265.686 231.493,264.537 231.217,263.423 231.353 C 261.293 231.613,261.413 231.909,260.543 224.238 C 260.261 221.753,259.719 221.410,255.414 220.993 C 253.317 220.789,251.550 220.573,251.489 220.511 C 251.317 220.340,250.295 210.105,250.359 209.200 C 250.390 208.760,250.522 206.484,250.653 204.143 C 250.902 199.687,251.920 198.320,254.489 198.991 C 255.320 199.209,256.000 198.996,256.000 198.518 C 256.000 198.041,256.482 197.835,257.072 198.062 C 258.315 198.538,259.557 197.203,260.388 194.500 C 260.802 193.153,260.702 192.766,260.045 193.172 C 259.423 193.557,259.484 192.866,260.230 191.073 C 260.842 189.603,261.216 188.027,261.061 187.571 C 260.907 187.115,261.552 186.684,262.494 186.613 C 264.552 186.458,267.771 183.593,268.494 181.273 C 268.781 180.353,269.392 179.359,269.852 179.064 C 270.797 178.458,271.341 176.447,271.270 173.823 C 271.163 169.878,272.455 168.264,275.527 168.506 C 277.107 168.631,278.400 168.388,278.400 167.966 C 278.400 167.545,278.850 167.290,279.400 167.400 C 279.977 167.515,280.293 166.974,280.146 166.120 C 280.007 165.306,280.214 164.838,280.605 165.080 C 280.997 165.322,281.343 163.884,281.375 161.884 C 281.407 159.884,281.883 157.832,282.434 157.324 C 283.198 156.619,283.301 156.637,282.870 157.400 C 282.193 158.600,283.682 158.761,284.420 157.567 C 284.703 157.110,285.553 156.931,286.309 157.171 C 288.456 157.853,290.713 155.670,290.947 152.688 C 291.062 151.209,291.301 149.100,291.476 148.000 C 291.652 146.900,291.842 145.574,291.898 145.054 C 291.954 144.534,292.724 143.878,293.610 143.597 C 294.495 143.316,296.077 141.825,297.124 140.284 C 298.171 138.743,299.246 137.509,299.514 137.541 C 300.941 137.714,301.590 137.537,301.505 137.000 C 301.453 136.670,301.498 136.130,301.605 135.800 C 302.090 134.307,302.206 133.391,302.300 130.346 C 302.389 127.449,302.580 127.149,304.039 127.612 C 305.000 127.917,306.479 127.608,307.611 126.866 C 309.938 125.341,310.703 125.252,309.894 126.600 C 309.485 127.279,309.727 127.248,310.646 126.502 C 311.391 125.898,311.994 124.998,311.988 124.502 C 311.981 124.006,311.627 124.140,311.200 124.800 C 310.773 125.460,310.419 125.610,310.412 125.133 C 310.406 124.657,310.649 124.017,310.954 123.713 C 311.259 123.408,311.609 122.497,311.732 121.688 C 312.325 117.803,313.495 116.122,315.281 116.589 C 316.575 116.928,316.882 116.781,316.425 116.040 C 315.972 115.308,316.232 115.166,317.366 115.526 C 319.224 116.115,322.022 113.454,321.360 111.727 C 321.121 111.105,321.241 110.279,321.627 109.893 C 322.013 109.507,322.541 106.855,322.800 104.000 C 323.339 98.057,323.751 97.434,327.368 97.103 C 331.463 96.729,331.959 96.581,331.518 95.867 C 331.291 95.500,331.487 95.200,331.953 95.200 C 332.446 95.200,332.800 93.363,332.800 90.800 C 332.800 86.090,332.746 86.139,337.800 86.243 C 339.321 86.275,340.019 85.874,340.063 84.944 C 340.103 84.104,340.278 83.977,340.531 84.605 C 340.754 85.158,341.250 85.416,341.633 85.179 C 342.017 84.943,342.127 84.220,341.879 83.574 C 341.632 82.928,341.792 82.400,342.235 82.400 C 342.679 82.400,343.004 81.074,342.958 79.454 C 342.911 77.794,343.297 76.368,343.842 76.186 C 344.375 76.008,344.574 75.482,344.286 75.015 C 343.940 74.455,344.466 74.344,345.832 74.686 C 348.926 75.463,352.812 71.976,351.412 69.680 C 350.582 68.319,350.614 68.132,351.612 68.515 C 352.265 68.766,352.810 68.843,352.822 68.686 C 353.938 54.299,353.229 56.195,357.600 55.911 C 361.911 55.631,363.970 53.299,363.635 49.074 C 363.383 45.903,363.945 45.421,368.175 45.183 C 369.902 45.085,371.739 44.546,372.257 43.985 C 372.985 43.198,372.974 43.093,372.209 43.524 C 371.545 43.899,371.375 43.675,371.693 42.846 C 371.954 42.166,372.476 41.800,372.852 42.032 C 373.229 42.265,373.435 41.165,373.311 39.587 C 373.187 38.009,373.387 36.532,373.756 36.304 C 374.124 36.076,374.219 35.554,373.966 35.145 C 373.713 34.735,374.111 34.400,374.851 34.400 C 375.965 34.400,376.022 34.191,375.185 33.182 C 374.330 32.152,374.397 32.049,375.618 32.518 C 376.541 32.872,376.874 32.767,376.540 32.226 C 376.243 31.745,376.617 31.428,377.409 31.490 C 378.174 31.551,378.710 31.150,378.600 30.600 C 378.490 30.050,378.850 29.690,379.400 29.800 C 379.950 29.910,380.344 29.332,380.275 28.515 C 380.179 27.383,380.370 27.253,381.075 27.968 C 381.778 28.681,381.372 29.471,379.387 31.253 C 376.644 33.718,376.623 34.179,379.320 32.736 C 380.209 32.260,381.445 30.652,382.068 29.161 C 383.367 26.051,383.537 24.641,382.400 26.400 C 381.858 27.239,381.621 27.292,381.612 26.575 C 381.606 26.011,382.140 25.343,382.800 25.089 C 383.460 24.836,384.004 23.677,384.009 22.514 C 384.035 16.235,384.808 14.623,387.685 14.852 C 389.178 14.970,390.400 14.748,390.400 14.359 C 390.400 13.969,390.944 13.859,391.609 14.114 C 392.477 14.447,392.677 14.212,392.320 13.280 C 391.974 12.379,392.166 12.114,392.947 12.413 C 393.846 12.759,394.111 11.559,394.268 6.423 L 394.465 0.000 354.032 0.000 L 313.600 0.000 313.600 2.353 C 313.600 5.220,313.246 5.462,308.706 5.697 C 304.488 5.915,303.678 6.630,303.376 10.400 C 302.929 15.974,302.733 16.415,300.829 16.135 C 299.837 15.989,299.229 16.199,299.477 16.602 C 299.726 17.004,299.421 17.333,298.800 17.333 C 298.179 17.333,297.856 17.033,298.082 16.667 C 298.858 15.412,297.047 15.999,295.200 17.600 C 293.995 18.645,293.744 19.208,294.478 19.224 C 295.252 19.241,295.156 19.507,294.165 20.084 C 293.235 20.625,292.899 21.451,293.209 22.429 C 293.829 24.380,292.315 27.200,290.648 27.200 C 289.524 27.200,289.554 27.429,290.876 28.924 L 292.400 30.648 290.196 29.229 C 286.852 27.077,282.952 30.948,284.865 34.521 C 285.657 36.000,285.598 36.171,284.452 35.730 C 283.666 35.429,283.318 35.544,283.606 36.009 C 283.874 36.444,283.775 36.800,283.384 36.800 C 282.993 36.800,282.590 38.862,282.488 41.382 C 282.266 46.887,282.371 46.758,278.280 46.517 C 274.312 46.283,272.444 48.339,272.318 53.080 C 272.229 56.456,271.100 57.633,268.586 56.976 C 267.525 56.698,267.140 56.856,267.491 57.424 C 267.846 57.998,267.355 58.177,266.067 57.944 C 264.987 57.748,263.844 58.006,263.528 58.517 C 263.148 59.131,263.335 59.249,264.076 58.864 C 264.694 58.544,264.570 58.798,263.800 59.429 C 262.198 60.742,261.897 61.997,263.400 61.094 C 264.163 60.635,264.157 60.793,263.372 61.762 C 262.806 62.460,262.395 63.339,262.458 63.716 C 262.785 65.667,261.245 67.871,259.280 68.264 C 255.826 68.955,253.397 71.385,253.293 74.253 C 253.242 75.652,252.891 76.797,252.514 76.798 C 252.137 76.799,252.032 77.328,252.279 77.974 C 252.527 78.620,252.416 79.343,252.032 79.580 C 251.648 79.818,251.431 81.242,251.551 82.747 C 251.845 86.449,251.195 87.226,247.530 87.556 C 245.808 87.711,244.220 87.917,244.000 88.014 C 243.780 88.110,243.303 88.138,242.941 88.075 C 242.578 88.012,242.509 88.329,242.788 88.780 C 243.066 89.231,242.960 89.600,242.551 89.600 C 242.143 89.600,241.811 90.230,241.814 91.000 C 241.836 96.648,241.574 97.600,240.000 97.600 C 239.120 97.600,238.400 97.910,238.400 98.290 C 238.400 98.669,237.419 98.872,236.221 98.741 C 233.656 98.459,231.915 99.648,232.533 101.258 C 232.774 101.886,232.608 102.400,232.165 102.400 C 231.721 102.400,231.396 103.726,231.442 105.346 C 231.489 107.006,231.103 108.432,230.558 108.614 C 230.025 108.792,229.802 109.280,230.062 109.700 C 230.340 110.150,229.745 110.266,228.616 109.983 C 225.980 109.321,223.085 111.790,222.936 114.827 C 222.872 116.132,222.521 117.416,222.157 117.680 C 221.297 118.302,220.937 120.318,220.861 124.925 C 220.807 128.206,220.615 128.602,219.246 128.244 C 218.391 128.020,216.585 128.389,215.232 129.064 C 213.880 129.739,212.978 129.960,213.228 129.555 C 213.478 129.150,213.184 129.010,212.575 129.244 C 211.362 129.709,211.297 129.935,210.840 135.200 C 210.669 137.180,210.499 139.031,210.464 139.314 C 210.429 139.597,209.841 140.043,209.158 140.305 C 208.447 140.578,208.125 140.444,208.406 139.991 C 208.674 139.556,208.333 139.200,207.647 139.200 C 206.961 139.200,206.394 139.830,206.388 140.600 C 206.379 141.630,206.203 141.728,205.724 140.973 C 204.927 139.718,202.703 140.457,202.035 142.198 C 201.766 142.899,202.008 143.765,202.573 144.124 C 203.328 144.603,203.230 144.779,202.200 144.788 C 201.430 144.794,200.800 145.361,200.800 146.047 C 200.800 146.733,201.156 147.074,201.591 146.806 C 202.049 146.523,202.176 146.854,201.892 147.592 C 201.020 149.866,199.600 148.351,199.588 145.133 C 199.581 143.410,199.290 141.550,198.941 141.000 C 198.591 140.450,198.528 139.640,198.800 139.200 C 199.072 138.760,198.922 138.400,198.467 138.400 C 197.940 138.400,197.888 137.748,198.324 136.600 C 199.014 134.786,197.294 132.120,195.757 132.620 C 195.385 132.741,195.324 132.446,195.621 131.966 C 195.927 131.471,195.432 130.902,194.480 130.653 C 193.556 130.411,192.800 129.907,192.800 129.532 C 192.800 129.157,192.224 129.071,191.519 129.342 C 189.879 129.971,188.736 128.134,189.320 125.807 C 189.569 124.813,189.424 124.000,188.998 124.000 C 188.571 124.000,188.386 123.142,188.586 122.094 C 188.787 121.045,188.501 119.910,187.952 119.570 C 187.306 119.171,187.155 119.279,187.524 119.876 C 187.838 120.384,187.713 120.800,187.247 120.800 C 186.781 120.800,186.400 120.260,186.400 119.600 C 186.400 118.940,186.019 118.400,185.553 118.400 C 185.087 118.400,184.960 118.850,185.270 119.400 C 185.722 120.200,185.619 120.200,184.757 119.400 C 184.165 118.850,182.672 118.400,181.440 118.400 C 179.119 118.400,178.770 117.262,179.049 110.600 C 179.091 109.610,178.782 108.800,178.362 108.800 C 177.943 108.800,177.600 108.062,177.600 107.160 C 177.600 104.667,175.415 100.976,173.597 100.399 C 172.706 100.116,172.162 99.584,172.389 99.217 C 172.616 98.850,172.077 98.739,171.191 98.971 C 169.762 99.344,169.867 99.540,172.122 100.696 C 175.180 102.264,177.511 105.333,175.644 105.333 C 174.999 105.333,174.638 105.062,174.843 104.731 C 175.420 103.798,172.779 101.519,171.812 102.116 C 171.336 102.410,171.182 102.276,171.467 101.815 C 171.750 101.357,171.266 100.795,170.391 100.566 C 168.822 100.156,168.330 98.178,168.706 93.800 C 168.791 92.810,168.448 92.000,167.945 92.000 C 167.441 92.000,167.232 91.472,167.479 90.826 C 168.026 89.402,166.691 88.434,164.000 88.302 C 159.744 88.094,158.405 87.156,158.300 84.307 C 158.099 78.877,157.980 78.329,156.838 77.624 C 156.199 77.229,155.389 77.083,155.038 77.300 C 154.687 77.517,154.400 77.170,154.400 76.530 C 154.400 75.890,153.230 74.325,151.800 73.052 C 149.533 71.035,145.458 62.523,147.306 63.665 C 147.688 63.901,148.000 63.533,148.000 62.847 C 148.000 62.161,147.596 61.600,147.102 61.600 C 146.518 61.600,146.588 61.134,147.302 60.269 C 148.291 59.070,148.232 59.027,146.705 59.841 C 144.972 60.764,143.990 60.409,144.012 58.867 C 144.019 58.390,144.334 58.488,144.712 59.085 C 145.192 59.842,145.566 59.903,145.947 59.285 C 146.248 58.798,146.203 58.359,145.847 58.309 C 141.737 57.729,140.818 57.782,141.305 58.570 C 141.633 59.101,141.478 59.219,140.911 58.868 C 140.395 58.550,140.181 57.954,140.434 57.545 C 140.687 57.135,140.333 56.800,139.647 56.800 C 138.961 56.800,138.344 56.350,138.275 55.800 C 138.206 55.250,138.056 53.900,137.941 52.800 C 137.369 47.330,137.029 46.962,132.376 46.776 C 127.899 46.597,128.134 46.882,127.910 41.344 C 127.780 38.132,127.339 36.500,126.462 35.987 C 125.676 35.527,125.577 35.239,126.200 35.224 C 126.750 35.211,127.200 34.621,127.200 33.914 C 127.200 33.051,126.769 32.794,125.887 33.133 C 124.812 33.545,124.749 33.425,125.542 32.469 C 126.235 31.635,126.275 30.862,125.684 29.756 C 125.229 28.906,124.993 28.073,125.159 27.905 C 125.326 27.737,124.413 27.524,123.131 27.432 C 121.749 27.333,120.800 27.658,120.799 28.232 C 120.798 28.764,119.948 28.212,118.910 27.005 C 117.553 25.427,117.085 24.021,117.245 22.005 C 117.373 20.387,117.100 19.200,116.600 19.200 C 116.123 19.200,115.956 18.977,116.229 18.705 C 117.218 17.715,114.725 16.326,111.602 16.127 C 107.558 15.869,107.366 15.641,107.122 10.800 C 106.882 6.037,106.482 4.655,105.516 5.252 C 105.122 5.495,104.800 4.413,104.800 2.847 L 104.800 0.000 59.200 0.000 L 13.600 0.000 13.600 2.640 M21.184 21.050 C 21.413 21.353,21.363 21.423,21.074 21.207 C 20.784 20.991,20.106 21.180,19.567 21.627 C 18.882 22.196,18.462 22.115,18.172 21.360 C 17.745 20.247,20.371 19.977,21.184 21.050 M289.254 30.608 C 289.501 32.288,287.569 34.045,286.816 32.826 C 286.526 32.357,285.899 32.215,285.421 32.511 C 284.859 32.858,284.781 32.651,285.201 31.924 C 287.151 28.544,288.869 27.986,289.254 30.608 M287.200 30.400 C 287.200 30.840,287.200 31.380,287.200 31.600 C 287.200 32.594,288.319 31.913,288.479 30.822 C 288.578 30.150,288.330 29.600,287.929 29.600 C 287.528 29.600,287.200 29.960,287.200 30.400 M41.593 50.791 C 42.136 51.446,42.841 51.822,43.157 51.626 C 43.474 51.431,43.733 51.775,43.733 52.392 C 43.733 53.191,43.350 53.308,42.401 52.800 C 40.622 51.849,38.798 49.600,39.804 49.600 C 40.244 49.600,41.049 50.136,41.593 50.791 M258.945 69.836 C 257.704 70.366,256.714 71.070,256.745 71.400 C 256.775 71.730,256.635 71.910,256.434 71.800 C 256.233 71.690,255.494 72.320,254.790 73.200 C 253.536 74.769,253.528 74.766,254.362 73.041 C 255.372 70.952,258.265 68.786,259.978 68.836 C 260.650 68.856,260.185 69.306,258.945 69.836 M350.681 71.622 C 349.921 73.603,346.400 75.190,346.400 73.553 C 346.400 73.087,346.750 72.922,347.179 73.187 C 347.607 73.452,348.587 72.933,349.356 72.034 C 351.029 70.081,351.305 69.995,350.681 71.622 M152.245 76.728 C 151.911 77.195,148.800 74.285,148.800 73.505 C 148.800 73.149,149.628 73.654,150.640 74.629 C 151.653 75.603,152.375 76.548,152.245 76.728 M65.204 78.405 C 67.258 80.674,66.388 80.858,64.073 78.643 C 63.014 77.629,62.508 76.800,62.949 76.800 C 63.391 76.800,64.406 77.522,65.204 78.405 M228.344 111.110 C 228.585 111.500,228.157 111.770,227.391 111.710 C 226.622 111.649,226.098 112.074,226.220 112.659 C 226.341 113.242,226.071 113.491,225.620 113.212 C 224.884 112.757,224.451 113.792,224.705 115.400 C 224.757 115.730,224.440 116.000,224.000 116.000 C 222.756 116.000,223.048 114.809,224.858 112.508 C 226.585 110.312,227.600 109.905,228.344 111.110 M319.657 114.286 C 318.987 114.956,318.213 115.280,317.939 115.006 C 317.172 114.239,318.179 113.067,319.603 113.067 C 320.744 113.067,320.749 113.194,319.657 114.286 M295.808 139.377 C 295.087 141.539,291.955 142.734,292.330 140.705 C 292.523 139.657,292.708 138.787,292.741 138.770 C 293.714 138.283,296.020 138.740,295.808 139.377 M268.000 180.195 C 268.000 181.142,263.542 185.600,262.595 185.600 C 262.194 185.600,261.867 185.094,261.867 184.476 C 261.867 183.858,262.337 183.533,262.913 183.754 C 263.488 183.975,264.508 183.606,265.179 182.935 C 266.604 181.511,266.830 179.640,265.476 180.476 C 264.960 180.796,264.768 180.699,265.041 180.257 C 265.655 179.264,268.000 179.215,268.000 180.195 M143.740 223.726 C 143.451 224.016,143.591 224.707,144.052 225.262 C 144.846 226.220,144.614 226.259,141.702 225.661 C 141.266 225.572,143.318 223.200,143.831 223.200 C 144.071 223.200,144.030 223.437,143.740 223.726 M276.061 249.713 C 276.498 250.531,276.667 251.200,276.435 251.200 C 275.968 251.200,271.200 246.339,271.200 245.863 C 271.200 245.103,275.354 248.393,276.061 249.713 M117.194 264.791 C 117.488 265.266,117.108 265.366,116.242 265.041 C 114.926 264.548,114.905 264.636,116.000 266.050 C 117.104 267.476,117.090 267.514,115.835 266.531 C 114.303 265.331,112.481 265.999,113.315 267.455 C 113.613 267.975,113.564 268.136,113.207 267.812 C 112.850 267.489,112.053 267.849,111.435 268.612 C 110.422 269.863,110.395 269.827,111.162 268.241 C 112.606 265.255,116.208 263.195,117.194 264.791 M300.000 279.241 C 300.000 279.607,299.644 280.126,299.209 280.394 C 298.734 280.688,298.634 280.308,298.959 279.442 C 299.452 278.126,299.364 278.105,297.950 279.200 C 296.516 280.310,296.482 280.296,297.498 279.000 C 298.177 278.134,298.329 277.204,297.898 276.562 C 297.514 275.992,297.830 276.211,298.600 277.051 C 299.370 277.890,300.000 278.876,300.000 279.241 M210.124 282.835 C 210.869 284.776,209.996 284.964,208.404 283.205 C 207.079 281.740,207.070 281.600,208.301 281.600 C 209.043 281.600,209.863 282.156,210.124 282.835 M185.928 298.479 C 184.371 300.200,183.200 300.452,183.200 299.067 C 183.200 298.553,183.437 298.370,183.726 298.660 C 184.511 299.445,186.465 297.552,185.868 296.586 C 185.559 296.086,185.743 295.994,186.329 296.356 C 187.062 296.809,186.962 297.337,185.928 298.479 M84.457 308.294 C 82.886 309.776,81.600 311.396,81.600 311.894 C 81.600 312.393,81.231 312.800,80.779 312.800 C 78.431 312.800,84.420 305.961,87.057 305.632 C 87.198 305.614,86.028 306.813,84.457 308.294 M325.406 322.861 C 324.618 323.648,323.200 322.440,323.200 320.981 C 323.200 319.760,323.305 319.762,324.552 321.010 C 325.296 321.753,325.680 322.587,325.406 322.861 M165.600 323.892 C 165.600 324.894,162.288 328.955,161.838 328.505 C 161.492 328.158,164.774 323.200,165.350 323.200 C 165.488 323.200,165.600 323.511,165.600 323.892 M348.283 348.362 C 350.563 350.474,350.742 351.021,349.699 352.667 C 349.158 353.521,348.922 353.473,348.520 352.426 C 348.227 351.661,348.347 351.320,348.809 351.606 C 350.375 352.573,349.558 350.640,347.641 348.838 C 346.471 347.740,345.165 347.196,344.399 347.490 C 343.655 347.775,343.322 347.650,343.606 347.191 C 344.415 345.881,346.047 346.290,348.283 348.362 M56.121 351.454 C 55.622 352.055,55.375 352.709,55.573 352.906 C 55.770 353.103,55.227 353.318,54.366 353.383 C 52.294 353.539,52.379 352.386,54.552 350.864 C 56.545 349.468,57.478 349.819,56.121 351.454 M256.867 358.467 C 257.783 359.383,258.385 360.282,258.203 360.464 C 258.022 360.645,257.029 359.895,255.997 358.797 C 253.737 356.391,254.501 356.101,256.867 358.467 M371.772 379.695 C 371.005 380.462,368.723 378.371,369.303 377.433 C 369.592 376.965,370.299 377.156,371.047 377.904 C 371.739 378.596,372.065 379.402,371.772 379.695 M279.974 386.497 C 282.750 389.273,282.844 390.222,280.158 388.341 C 278.535 387.204,276.286 384.000,277.110 384.000 C 277.312 384.000,278.601 385.124,279.974 386.497 M396.200 418.151 C 396.970 418.353,398.230 418.353,399.000 418.151 C 399.770 417.950,399.140 417.786,397.600 417.786 C 396.060 417.786,395.430 417.950,396.200 418.151 M85.786 438.400 C 85.786 439.940,85.950 440.570,86.151 439.800 C 86.353 439.030,86.353 437.770,86.151 437.000 C 85.950 436.230,85.786 436.860,85.786 438.400 " stroke="none" fill="#95989a" fill-rule="evenodd"></path></g></svg>