<svg xmlns="http://www.w3.org/2000/svg" width="66" height="92.03" viewBox="0 0 66 92.03">
  <metadata><?xpacket begin="﻿" id="W5M0MpCehiHzreSzNTczkc9d"?>
<x:xmpmeta xmlns:x="adobe:ns:meta/" x:xmptk="Adobe XMP Core 5.6-c138 79.159824, 2016/09/14-01:09:01        ">
   <rdf:RDF xmlns:rdf="http://www.w3.org/1999/02/22-rdf-syntax-ns#">
      <rdf:Description rdf:about=""/>
   </rdf:RDF>
</x:xmpmeta>
                                                                                                    
                                                                                                    
                                                                                                    
                                                                                                    
                                                                                                    
                                                                                                    
                                                                                                    
                                                                                                    
                                                                                                    
                                                                                                    
                                                                                                    
                                                                                                    
                                                                                                    
                                                                                                    
                                                                                                    
                                                                                                    
                                                                                                    
                                                                                                    
                                                                                                    
                                                                                                    
                           
<?xpacket end="w"?></metadata>
<defs>
    <style>
      .cls-1 {
        fill: #3e587c;
        fill-rule: evenodd;
      }
    </style>
  </defs>
  <path id="_-e-Shape_6" data-name="-e-Shape 6" class="cls-1" d="M341.993,2102.54a23.621,23.621,0,0,1-23.633-23.61h0a23.633,23.633,0,0,1,47.266,0h0a23.62,23.62,0,0,1-23.632,23.61h0m0-56.59a32.99,32.99,0,0,0-33,32.98c0,18.21,26.891,59.03,33,59.03,7.334,0,33-40.82,33-59.03a32.989,32.989,0,0,0-33-32.98m-14.669,32.98a14.662,14.662,0,0,1,14.669-14.66h0a14.662,14.662,0,0,1,14.668,14.66h0a14.66,14.66,0,0,1-14.668,14.65h0a14.66,14.66,0,0,1-14.669-14.65h0" transform="translate(-309 -2045.94)"/>
</svg>
