<?xml version="1.0" encoding="utf-8"?>
<!-- Generator: Adobe Illustrator 21.1.0, SVG Export Plug-In . SVG Version: 6.00 Build 0)  -->
<svg version="1.1" id="Layer_1" xmlns="http://www.w3.org/2000/svg" xmlns:xlink="http://www.w3.org/1999/xlink" x="0px" y="0px"
	 viewBox="0 0 81 86" style="enable-background:new 0 0 81 86;" xml:space="preserve">
<style type="text/css">
	.st0{clip-path:url(#SVGID_2_);}
</style>
<g>
	<defs>
		<path id="SVGID_1_" d="M59.1,19.1c0,10.5-8.5,19.1-19.1,19.1c-10.5,0-19-8.5-19.1-19.1C21,8.5,29.5,0,40.1,0
			C50.6,0,59.1,8.5,59.1,19.1L59.1,19.1z M81,70.9c0,9.9-3.1,15-40.3,15h-0.3C3.1,85.9,0,80.8,0,70.9c0-9.9,3-23.4,7-27.4
			c2.9-2.9,8.3-5.5,12.6-5.3c5.3,5.7,12.7,8.9,20.4,8.9c7.7,0,15.1-3.2,20.3-8.8c4.5-0.7,10.5,2.1,13.6,5.2h0C78,47.6,81,61,81,70.9
			z"/>
	</defs>
	<clipPath id="SVGID_2_">
		<use xlink:href="#SVGID_1_"  style="overflow:visible;"/>
	</clipPath>
	<g class="st0">
		<defs>
			<rect id="SVGID_3_" width="81" height="86"/>
		</defs>
		<clipPath id="SVGID_4_">
			<use xlink:href="#SVGID_3_"  style="overflow:visible;"/>
		</clipPath>
		<image style="overflow:visible;clip-path:url(#SVGID_4_);" width="81" height="86" xlink:href="B4C1B026.jpg" >
		</image>
	</g>
</g>
</svg>
