<svg xmlns="http://www.w3.org/2000/svg" width="77" height="83" viewBox="0 0 77 83">
  <metadata><?xpacket begin="﻿" id="W5M0MpCehiHzreSzNTczkc9d"?>
<x:xmpmeta xmlns:x="adobe:ns:meta/" x:xmptk="Adobe XMP Core 5.6-c138 79.159824, 2016/09/14-01:09:01        ">
   <rdf:RDF xmlns:rdf="http://www.w3.org/1999/02/22-rdf-syntax-ns#">
      <rdf:Description rdf:about=""/>
   </rdf:RDF>
</x:xmpmeta>
                                                                                                    
                                                                                                    
                                                                                                    
                                                                                                    
                                                                                                    
                                                                                                    
                                                                                                    
                                                                                                    
                                                                                                    
                                                                                                    
                                                                                                    
                                                                                                    
                                                                                                    
                                                                                                    
                                                                                                    
                                                                                                    
                                                                                                    
                                                                                                    
                                                                                                    
                                                                                                    
                           
<?xpacket end="w"?></metadata>
<defs>
    <style>
      .cls-1 {
        fill: #3e587c;
        fill-rule: evenodd;
      }
    </style>
  </defs>
  <path id="_-e-Shape_3" data-name="-e-Shape 3" class="cls-1" d="M901.827,2106.32a4.439,4.439,0,0,1-4.435-4.44h0a4.435,4.435,0,1,1,4.435,4.44m5.966-33.54h-56.6a9.937,9.937,0,0,0-4.089.86,8.753,8.753,0,0,1,4.919-4.2l47.064-14.12a4.673,4.673,0,0,1,1.481-.24c1.8,0,2.878,1.17,2.878,3.12v11.45h5.1V2058.2a7.829,7.829,0,0,0-7.435-8.21c-0.18-.01-0.36-0.01-0.54-0.01a10.252,10.252,0,0,0-2.96.46l-47.066,14.11c-5.3,1.61-9.457,7.06-9.457,12.41v4.72a10.351,10.351,0,0,0-.086,1.29v39.8a10.212,10.212,0,0,0,10.2,10.2h56.6a10.213,10.213,0,0,0,10.2-10.2v-39.8a10.213,10.213,0,0,0-10.2-10.2" transform="translate(-841 -2049.97)"/>
</svg>
